<svg id="b6b62e9a-7e46-48e4-9e3f-d4d652169bb0" data-name="Capa 1" xmlns="http://www.w3.org/2000/svg" viewBox="0 0 100 100"><title>tech-svg</title><path d="M49.88,36.56q11-.06,22-.14c.29,0,.42,0,.42.39q.07,16.08.19,32.17a5.37,5.37,0,0,1-4.29,5.45,4.9,4.9,0,0,1-1.08.12c-1.09,0-2.17,0-3.26,0-.29,0-.34.09-.34.36,0,3.54,0,7.08.07,10.62a5.52,5.52,0,0,1-1.22,3.52,4.94,4.94,0,0,1-7.2.43,5.14,5.14,0,0,1-1.62-3.79c0-3.55-.05-7.1-.06-10.65,0-.34-.08-.43-.42-.42-2,0-3.94,0-5.91,0-.31,0-.37.09-.36.37q0,5.35.07,10.69a5.08,5.08,0,0,1-2,4.16,4.88,4.88,0,0,1-6.47-.31,5,5,0,0,1-1.6-3.69c0-3.57-.05-7.15-.06-10.72,0-.36-.09-.45-.44-.44-1.05,0-2.1,0-3.15,0a5.37,5.37,0,0,1-5.45-5.35c-.08-10.79-.13-21.59-.21-32.38,0-.35.16-.33.4-.33Z" style="fill:#a2c439"/><path d="M49.84,34.79l-21.94.14c-.31,0-.42,0-.42-.39a19.78,19.78,0,0,1,3.1-10.29,21.23,21.23,0,0,1,7.8-7.32c.4-.23.41-.22.17-.64-.56-1-1.14-2-1.67-3s-1.07-1.94-1.6-2.91a.72.72,0,1,1,1.23-.7c1.13,2,2.26,4.05,3.38,6.09.14.25.26.27.51.16a23.37,23.37,0,0,1,7.72-1.88,23.79,23.79,0,0,1,11.06,1.79c.23.1.32,0,.43-.17q1.62-3,3.26-6.06A2.54,2.54,0,0,1,63,9.34a.71.71,0,0,1,1.23.68c-.11.25-.25.48-.38.72-1,1.85-2,3.69-3,5.53-.14.26-.07.35.16.47a21.07,21.07,0,0,1,7.49,6.51,19.68,19.68,0,0,1,3.72,11c0,.33-.07.43-.42.43ZM37.62,24.72a1.86,1.86,0,1,0,1.85-1.95A1.86,1.86,0,0,0,37.62,24.72Zm20.66-.12a1.87,1.87,0,1,0,1.85-2A1.87,1.87,0,0,0,58.28,24.6Z" style="fill:#a2c439"/><path d="M25.7,51.21c0,3.55,0,7.1,0,10.65a5,5,0,0,1-10-.12q0-10.52,0-21.05a5,5,0,0,1,9.91-1.11,5.42,5.42,0,0,1,.12,1.27V51.21Z" style="fill:#a2c439"/><path d="M74.24,51.11l-.06-10.47a5,5,0,0,1,10-.59c0,.34,0,.68,0,1q.06,10.14.13,20.28a5.25,5.25,0,0,1-1.22,3.52,5,5,0,0,1-5.53,1.45,5,5,0,0,1-3.28-4.56c0-3.55,0-7.1-.07-10.65Z" style="fill:#a2c439"/><path d="M37.62,24.72a1.86,1.86,0,1,1,1.86,1.86A1.86,1.86,0,0,1,37.62,24.72Z" style="fill:#fcfdfb"/><path d="M58.28,24.6a1.87,1.87,0,1,1,1.88,1.85A1.88,1.88,0,0,1,58.28,24.6Z" style="fill:#fcfdfb"/></svg>