<svg id="ae3da62c-a99a-4572-9c88-9d76c603d593" data-name="Capa 1" xmlns="http://www.w3.org/2000/svg" viewBox="0 0 100 100"><title>tech-svg</title><polygon points="50 10.03 50 10.03 50 10.03 12.79 23.3 18.47 72.5 50 89.97 50 89.97 50 89.97 81.53 72.5 87.21 23.3 50 10.03" style="fill:#da0131"/><polygon points="50 10.03 50 18.91 50 18.86 50 59.35 50 59.35 50 89.97 50 89.97 81.53 72.5 87.21 23.3 50 10.03" style="fill:#c1012f"/><path d="M50,18.87,26.74,71h8.67l4.68-11.67H59.83L64.51,71h8.67L50,18.87Zm6.79,33.29H43.21L50,35.81Z" style="fill:#fff"/></svg>