<svg id="bbd6f1ec-1aa0-49a5-94a4-e061c8a6e9ad" data-name="Capa 1" xmlns="http://www.w3.org/2000/svg" viewBox="0 0 100 100"><title>tech-svg</title><path d="M19,57.64V49.53A32.38,32.38,0,0,0,19.34,46c.76-7.7,7.49-15.15,15-16.39a18.9,18.9,0,0,1,10.36,1.18c.76.32,1.53.59,2.27.92a7.9,7.9,0,0,0,6.67,0,27.73,27.73,0,0,1,7.88-2.44c6.75-.73,12.63,1,17.13,6.47,1.34,1.62,1.24,2.15-.43,3.39a15.63,15.63,0,0,0-6.5,11.83,15.73,15.73,0,0,0,6.94,14.85,9,9,0,0,1,2.38,2.14v.62c-1,5.64-3.88,10.34-7.18,14.83-2.27,3.09-5,5.4-9,5.43H62.7a50,50,0,0,1-8.25-1.89,10.08,10.08,0,0,0-6.17.06,54.8,54.8,0,0,1-7.92,1.83H37.3c-5.85-.9-8.64-5.55-11.51-10A49,49,0,0,1,20,65.67a40.55,40.55,0,0,1-.87-7.3C19.08,58.12,19.14,57.85,19,57.64Z" style="fill:#999"/><path d="M65.14,11.19C66,19.48,59.87,27.32,53.6,28.7c-4.13.91-4.28.2-3.58-3.38,1.33-6.87,5.45-11.41,12-13.59.52-.17,1.13-.12,1.56-.54Z" style="fill:#999"/></svg>