<svg id="aa129464-c4db-46fa-a499-519d76dd7010" data-name="Capa 1" xmlns="http://www.w3.org/2000/svg" viewBox="0 0 100 100"><title>tech-svg</title><path d="M16.58,67.41c.65-.77,1-1.77,1.92-2.34a1,1,0,0,0,.38-1c.09-5,2.22-9.22,5.21-13,8.69-11,20.12-17.76,33.57-21.31.1,0,.2,0,.3-.05.71-.21,1.42-.23,1.63.63s-.52,1.12-1.2,1.27a49.22,49.22,0,0,0-9.54,3.17c-9.11,4-17.16,9.55-23.29,17.56a20.94,20.94,0,0,0-4.65,10.34c-.11,1,0,1.52,1.27,1.66a4.5,4.5,0,0,1,3.68,4.25,4.78,4.78,0,0,1-3.17,4.68,4.62,4.62,0,0,1-5.33-1.79c-.29-.42-.53-.87-.78-1.3Zm7.35,1.51a2.74,2.74,0,0,0-5.48-.08,2.71,2.71,0,0,0,2.77,2.73A2.75,2.75,0,0,0,23.93,68.92Z" style="fill:#60848e"/><path d="M51.09,13.62c2,.9,3.46,2.19,3.61,4.54a.93.93,0,0,0,.52.72c4.88,3.08,7.45,7.85,9.22,13.05a62.33,62.33,0,0,1,1,36.8c-.07.25-.15.5-.22.75-.2.65-.54,1.21-1.31,1s-.74-.83-.54-1.53a50.68,50.68,0,0,0,1.84-8.79c1.23-11.09.46-21.9-4.55-32.1a18.67,18.67,0,0,0-5.46-6.86c-.6-.45-1-.64-1.64.09a4.44,4.44,0,0,1-5.44,1.34,4.55,4.55,0,0,1-2.69-4.65c.12-2.06,1.26-3.37,3.58-4.11.08,0,.14-.14.2-.21Zm-1,2A2.74,2.74,0,0,0,50,21.06a2.7,2.7,0,0,0,2.71-2.63A2.75,2.75,0,0,0,50.05,15.58Z" style="fill:#5f838d"/><path d="M83.42,70.21c-.72.78-1,1.88-2,2.49a4.08,4.08,0,0,1-4.12.56,3,3,0,0,0-2.86.17,23.22,23.22,0,0,1-13.14,1c-12.88-2.22-23.84-8.2-33.18-17.27-.41-.4-.79-.82-1.18-1.24s-.76-1-.17-1.62,1.13-.16,1.58.33a48,48,0,0,0,6.18,5.66c8,6.18,16.88,10.57,27,12.24a22.66,22.66,0,0,0,11.94-.78c.63-.24,1.2-.38.93-1.39-.73-2.77.52-5.35,2.84-5.85,2.79-.61,5,0,6,3.31,0,.08.14.13.21.19Zm-4.75,1.36A2.7,2.7,0,1,0,76,68.9,2.76,2.76,0,0,0,78.67,71.57Z" style="fill:#5f838d"/><path d="M48.91,86.38c-7.4-1.95-10.61-7.77-13.18-14.2-.28-.72-.53-1.49.44-1.81s1.12.44,1.37,1.09a28.76,28.76,0,0,0,5,8.85c4.69,5.33,10.52,5.28,15.09-.16.79-.94,1.46-2,2.18-3,.34-.47.76-.74,1.32-.42a.86.86,0,0,1,.34,1.32c-2.21,3.6-4.87,6.7-9.15,7.9a9.68,9.68,0,0,1-1.53.17c-.54,0-1.14-.3-1.59.26Z" style="fill:#5f838d"/><path d="M49.22,86.38c.45-.56,1.05-.23,1.59-.26a1.09,1.09,0,0,0,0,.26Z" style="fill:#b8c8cc"/><path d="M32.33,28.66a41.66,41.66,0,0,1,7.28.55c.62.1,1.32.26,1.21,1.11s-.77.92-1.52.81A30.17,30.17,0,0,0,29,31.05c-6.56,1.24-9.51,6.08-7.58,12.47a21.42,21.42,0,0,0,1.77,4.12c.31.58.61,1.2-.1,1.63s-1.22-.05-1.58-.71c-1.64-3-2.86-6.12-2.6-9.59.38-5.12,3.94-8.68,9.64-9.8C29.88,28.91,31.28,28.8,32.33,28.66Z" style="fill:#61848e"/><path d="M81.09,39.55c-.08,4.62-1.94,8.33-4.32,11.84-.61.9-1.31,1.74-2,2.61-.44.6-1,1.07-1.69.57s-.3-1.2.16-1.75A29.86,29.86,0,0,0,78,45.2a13.83,13.83,0,0,0,1-3.72c.69-5.58-2.28-9.35-8.18-10.42a19.09,19.09,0,0,0-3.7-.35c-.7,0-1.31-.26-1.25-1s.83-.57,1.4-.65a13.79,13.79,0,0,1,8.17,1.64A9.63,9.63,0,0,1,81.09,39.55Z" style="fill:#60848e"/><path d="M53.3,51.84A3.34,3.34,0,0,1,50,55.23a3.38,3.38,0,1,1,3.28-3.39Z" style="fill:#5f838d"/><path d="M23.93,68.92a2.75,2.75,0,0,1-2.71,2.65,2.71,2.71,0,0,1-2.77-2.73,2.74,2.74,0,0,1,5.48.08Z" style="fill:#f8f9fa"/><path d="M50.05,15.58a2.75,2.75,0,0,1,2.65,2.85,2.68,2.68,0,1,1-5.36-.21A2.74,2.74,0,0,1,50.05,15.58Z" style="fill:#fafbfb"/><path d="M78.67,71.57A2.7,2.7,0,1,1,81.46,69,2.79,2.79,0,0,1,78.67,71.57Z" style="fill:#f9fafa"/></svg>