<svg id="a6489c25-7522-4722-a15b-6dbf4436ea54" data-name="Capa 1" xmlns="http://www.w3.org/2000/svg" viewBox="0 0 100 100"><title>tech-svg</title><g id="a4ddfd99-439f-4af3-b74e-93b2baa53fb7" data-name="s4rBQ9"><path d="M83.48,50q0,16.57,0,33.15c0,.25,0,.3-.3.3H16.82c-.25,0-.3,0-.3-.3V16.82c0-.25.05-.3.3-.3H83.18c.25,0,.3.05.3.3Q83.47,33.42,83.48,50ZM67.84,78.24a14.3,14.3,0,0,0,4.57-.71,8.32,8.32,0,0,0,5-4.2A9.34,9.34,0,0,0,78.19,68a8,8,0,0,0-2.57-5.1,14.62,14.62,0,0,0-3.18-2.16c-1.61-.86-3.33-1.5-5-2.27a7.79,7.79,0,0,1-2.25-1.42,2.74,2.74,0,0,1,1.1-4.5,3.86,3.86,0,0,1,4.1,1,6.08,6.08,0,0,1,1,1.36c.07.11.12.18.27.08l4.59-2.94c.11-.08.14-.13.07-.26A9.23,9.23,0,0,0,72,47.72a11.8,11.8,0,0,0-6.8-.59,8.05,8.05,0,0,0-6.91,7.95,8.59,8.59,0,0,0,2,6,12.14,12.14,0,0,0,3.29,2.54c1.38.75,2.84,1.31,4.27,2A15.25,15.25,0,0,1,70.66,67a2.87,2.87,0,0,1-.61,5.15A6.47,6.47,0,0,1,64.61,72a7.23,7.23,0,0,1-2.9-2.8c-.18-.29-.3-.28-.56-.12l-4.51,2.62c-.21.12-.24.2-.12.41a11.2,11.2,0,0,0,3.84,4.16A13.71,13.71,0,0,0,67.84,78.24ZM53,58.79q0-5.59,0-11.21c0-.25-.07-.33-.33-.32-1.84,0-3.68,0-5.52,0-.52,0-.46-.08-.46.44V68.4a7.93,7.93,0,0,1-.22,2.17,2.43,2.43,0,0,1-1.53,1.78,3.85,3.85,0,0,1-4.59-1.27,13.45,13.45,0,0,1-1-1.49c-.06-.1-.09-.24-.28-.12q-2.4,1.45-4.81,2.9c-.13.08-.14.15-.07.29a9.3,9.3,0,0,0,4.63,4.6,11.78,11.78,0,0,0,8.94.24,7.32,7.32,0,0,0,4.56-4.72A12.83,12.83,0,0,0,53,68.57Z" style="fill:#eedc3d"/><path d="M67.84,78.24a13.71,13.71,0,0,1-7.48-2,11.2,11.2,0,0,1-3.84-4.16c-.12-.21-.09-.29.12-.41L61.15,69c.26-.16.38-.17.56.12a7.23,7.23,0,0,0,2.9,2.8,6.47,6.47,0,0,0,5.44.24A2.87,2.87,0,0,0,70.66,67a15.25,15.25,0,0,0-2.83-1.48c-1.43-.64-2.89-1.2-4.27-2a12.14,12.14,0,0,1-3.29-2.54,8.59,8.59,0,0,1-2-6,8.05,8.05,0,0,1,6.91-7.95,11.8,11.8,0,0,1,6.8.59,9.23,9.23,0,0,1,4.37,4.07c.07.13,0,.18-.07.26L71.69,55c-.15.1-.2,0-.27-.08a6.08,6.08,0,0,0-1-1.36,3.86,3.86,0,0,0-4.1-1,2.74,2.74,0,0,0-1.1,4.5,7.79,7.79,0,0,0,2.25,1.42c1.65.77,3.37,1.41,5,2.27a14.62,14.62,0,0,1,3.18,2.16A8,8,0,0,1,78.19,68a9.34,9.34,0,0,1-.76,5.29,8.32,8.32,0,0,1-5,4.2A14.3,14.3,0,0,1,67.84,78.24Z" style="fill:#060600"/><path d="M53,58.79v9.78a12.83,12.83,0,0,1-.62,4.21,7.32,7.32,0,0,1-4.56,4.72,11.78,11.78,0,0,1-8.94-.24,9.3,9.3,0,0,1-4.63-4.6c-.07-.14-.06-.21.07-.29q2.41-1.44,4.81-2.9c.19-.12.22,0,.28.12a13.45,13.45,0,0,0,1,1.49,3.85,3.85,0,0,0,4.59,1.27,2.43,2.43,0,0,0,1.53-1.78,7.93,7.93,0,0,0,.22-2.17V47.7c0-.52-.06-.44.46-.44,1.84,0,3.68,0,5.52,0,.26,0,.33.07.33.32Q53,53.19,53,58.79Z" style="fill:#080600"/></g></svg>