<svg id="ae7f9542-4eb9-41cc-b396-322b9b1f1fba" data-name="Capa 1" xmlns="http://www.w3.org/2000/svg" viewBox="0 0 100 100"><title>tech-svg</title><g id="a76c60d2-93dd-43c1-8584-08db4a76b873" data-name="qMPczf.tif"><path d="M82.41,14.55h4.5c.07,0,.15,0,.2,0h0c-.3.54-.61,1.08-.91,1.63l-1,1.76L83.7,20.62,82.39,23c-.5.87-1,1.74-1.51,2.61l-.46.81a.23.23,0,0,1-.08.09.29.29,0,0,0-.24-.07c-.33,0-.66,0-1,0-.16,0-.19-.05-.12-.19.49-1,.94-2.09,1.37-3.16.28-.71.54-1.42.82-2.13,0-.12,0-.18-.11-.2l-.53-.1a5.77,5.77,0,0,1-1.22-.26,0,0,0,0,0,0,0c.74-1.43,1.49-2.86,2.26-4.27C81.87,15.55,82.17,15.06,82.41,14.55Z" style="fill:#bcdef4"/><path d="M12.85,83.22c.1-.18.14-.39.25-.57a1.71,1.71,0,0,1,1.45-.88,1.83,1.83,0,0,1,1.93,1.45,1.87,1.87,0,0,1-1.09,2.12l-.38.15h-.56l-.1,0a1.82,1.82,0,0,1-1.42-1.3c0-.06,0-.14-.08-.2Z" style="fill:#060606"/><path d="M12.85,84c.06.06.05.14.08.2a1.82,1.82,0,0,0,1.42,1.3l.1,0H12.94c-.08,0-.09,0-.09-.09Z" style="fill:#fdfdfd"/><path d="M37,81.59a7.88,7.88,0,0,0-.07-1.09c0-.52,0-1,0-1.57,0-.09,0-.2,0-.3v-17c0-.13,0-.19.17-.19h2.39c.15,0,.2,0,.2.19V84.93c0,.14,0,.19-.18.19q-1.5,0-3,0a.31.31,0,0,1-.29-.16q-5.64-8.71-11.27-17.42a16.57,16.57,0,0,1-1.38-2.29c-.06-.13-.11-.27-.17-.41s0-.09-.09-.07,0,.06,0,.1a27.16,27.16,0,0,1,.12,3.25c0,5.59,0,11.19,0,16.78,0,.18-.05.22-.23.22q-1.2,0-2.4,0c-.12,0-.18,0-.16-.15a.48.48,0,0,0,0-.12q0-11.58,0-23.18c0-.19.05-.23.23-.23H24a.26.26,0,0,1,.26.13c1.61,2.54,3.24,5.08,4.86,7.61l3.33,5.23q2,3.14,4,6.27c.15.24.29.5.43.74Z" style="fill:#060606"/><path d="M44.86,73.28V61.67c0-.19,0-.22.22-.22H56.65c.16,0,.22,0,.21.21,0,.69,0,1.39,0,2.08,0,.17,0,.23-.21.22H47.84c-.16,0-.21,0-.21.2q0,3.74,0,7.47c0,.16,0,.2.2.2H56c.16,0,.21,0,.21.21,0,.7,0,1.39,0,2.09,0,.17,0,.22-.22.22H47.84c-.16,0-.21,0-.21.21q0,3.93,0,7.88c0,.15,0,.19.19.19h9.37c.16,0,.22,0,.21.21,0,.7,0,1.41,0,2.12,0,.16,0,.19-.19.19q-6.08,0-12.14,0c-.18,0-.21-.05-.21-.22Z" style="fill:#060606"/><path d="M82.41,14.55c-.24.51-.54,1-.81,1.5-.77,1.41-1.52,2.84-2.26,4.27a0,0,0,0,1,0,0c0,.06-.07.11-.09.16-.6,1.2-1.23,2.38-1.8,3.58-.36.76-.75,1.5-1.09,2.26a.75.75,0,0,0-.1.17c-.27.55-.53,1.11-.8,1.66-.56,1.16-1.13,2.32-1.7,3.48,0,.07,0,.16-.11.2a.2.2,0,0,0-.16,0H66l0-.16a.17.17,0,0,0,.12-.1l1-1.42c1.4-2.06,2.7-4.19,3.93-6.36q1.14-2,2.21-4.1c.76-1.47,1.47-3,2.18-4.44a2.07,2.07,0,0,0,.3-.66c.32,0,.65-.05,1-.05Z" style="fill:#5087ca"/><path d="M69.61,74.54V84.91c0,.17,0,.21-.21.21q-1.19,0-2.37,0c-.18,0-.2-.06-.2-.22q0-10.35,0-20.7c0-.19,0-.24-.24-.24H60.19c-.15,0-.19,0-.19-.19q0-1.08,0-2.16c0-.12,0-.17.16-.16H76.25c.14,0,.18,0,.18.17q0,1.08,0,2.16c0,.16-.05.18-.19.18H69.8c-.16,0-.2,0-.2.19Q69.62,69.34,69.61,74.54Z" style="fill:#060606"/><path d="M33.75,15.21l.55,0c0,.06.07,0,.11.06A6.11,6.11,0,0,1,37,16.41l.71.56.14.15a8.34,8.34,0,0,1,.67.78l-.62.48a5.39,5.39,0,0,0-.71.55,11.91,11.91,0,0,0-1.08.92,3.41,3.41,0,0,0-.6.6s-.05.05,0,.09h0c-.17.05-.27.2-.39.31s-.46.46-.69.69c0-.11-.12-.06-.19-.05l-1.58.28-2.31.4-2,.34-2.29.4c-.42.07-.83.16-1.25.2.42-.75.88-1.48,1.36-2.19a21.14,21.14,0,0,1,1.72-2.27,12.6,12.6,0,0,1,1.88-1.77c.09-.08.23-.12.28-.25h0a3.09,3.09,0,0,0,.67-.41h0a.07.07,0,0,0,.08,0h0s.06,0,.07,0h0a.09.09,0,0,0,.08,0h0a.08.08,0,0,0,.08,0h0a.07.07,0,0,0,.07,0h0a.11.11,0,0,0,.08,0h0l.08,0a10.46,10.46,0,0,1,1.42-.51Z" style="fill:#477abe"/><path d="M20.23,44.07a1.18,1.18,0,0,1-.53,0H16.2l-.11,0c0-.25.08-.49.11-.74.11-.81.25-1.61.39-2.41.23-1.2.49-2.39.79-3.58l.07-.18a3.47,3.47,0,0,0,.21-.37l.64-.1,2.2-.39c.83-.14,1.66-.3,2.49-.43a8.75,8.75,0,0,1,1.44-.2l-.43.8c-.18.37-.42.71-.57,1.1l0,0v0c-.08.14-.17.28-.25.43l-1,2c-.06.12-.17.23-.17.38a.94.94,0,0,0-.17.31c-.38.76-.78,1.52-1.1,2.31,0,.08-.17.15-.09.24s.19,0,.29,0h1c.06,0,.14,0,.16.07a5.39,5.39,0,0,1-.75.31C21,43.92,20.58,44,20.23,44.07Z" style="fill:#365999"/><path d="M21.57,51.08c.05,1.6,0,3.19,0,4.78,0,.81,0,1.63,0,2.44,0,.13,0,.19-.17.18H20.7c-.11,0-.13,0-.13-.13V49.67c0-.2.05-.23.23-.22h1a.19.19,0,0,1,.2.11l1.29,2.95,1.17,2.66c.22.49.44,1,.62,1.5,0,0,0,.1.06.1s.07-.06.09-.11A17,17,0,0,1,26,54.84l.6-1.38c.25-.54.52-1.09.76-1.64s.42-.92.62-1.39c.13-.3.26-.6.41-.89a.13.13,0,0,1,.13-.09h1.12c.1,0,.14,0,.13.12a.34.34,0,0,0,0,.1c0,2.86,0,5.73,0,8.6,0,.17-.05.22-.22.21h-.67c-.15,0-.18,0-.18-.18,0-1.59,0-3.18,0-4.77V51.59a1.82,1.82,0,0,0,0-.66,1.15,1.15,0,0,0-.11.29c-.26.72-.6,1.41-.91,2.11-.59,1.34-1.19,2.68-1.78,4-.15.32-.29.64-.43,1,0,.12-.12.14-.24.17-.34.06-.43-.15-.53-.39l-.84-1.9c-.31-.68-.61-1.36-.93-2-.23-.5-.44-1-.67-1.52s-.42-.89-.58-1.36C21.68,51.21,21.72,51.09,21.57,51.08Zm0-.27c0,.09,0,.19.05.27.06-.1,0-.18,0-.27s0-.08-.05-.12A.16.16,0,0,0,21.57,50.81Z" style="fill:#060606"/><path d="M32.25,29.78c-.1.44-.26.86-.39,1.3-.53,1.71-1.05,3.42-1.59,5.13A14.48,14.48,0,0,1,29,39.16l-.07.08c0-.12-.13-.12-.22-.12h-2.9l.31-.57a5.16,5.16,0,0,0,.39-.78s.05,0,.07-.06L28,35.21l0-.07,1.5-2.5c.29-.48.6-1,.9-1.44.11-.17.08-.23-.12-.23H27.25s0-.05,0-.07l1.16-1.78a3.46,3.46,0,0,1,.79,0H31.5a.83.83,0,0,1,.31,0c-.09.23-.29.41-.39.66C32,29.6,32.07,29.64,32.25,29.78Z" style="fill:#66a9e4"/><path d="M59.84,35.51c.17.77.43,1.5.65,2.25,0,.09,0,.2.14.26s.12,0,.15,0c.77-.75,1.49-1.53,2.2-2.33s1.33-1.58,2-2.39c.35-.44.68-.89,1-1.33a.46.46,0,0,1,0,.21c-.22.67-.44,1.33-.68,2s-.45,1.24-.68,1.87c-.43,1.1-.87,2.2-1.41,3.26,0,.1-.15.19-.16.31a10.33,10.33,0,0,1-1,1.56.22.22,0,0,1-.12-.11c-.21-.44-.45-.87-.63-1.32s-.4-1-.58-1.54c-.47.43-.93.86-1.41,1.26a2.74,2.74,0,0,1-.54.41,17.9,17.9,0,0,1-.82-2.1c-.22-.67-.42-1.35-.63-2,0-.14,0-.19.18-.19C58.21,35.52,59,35.51,59.84,35.51Z" style="fill:#5087ca"/><path d="M61.83,43.36h-4.1a.19.19,0,0,0-.3,0H55.82c-.08,0-.17-.14-.25,0H51.21c0-.09.1-.06.16-.07a2.91,2.91,0,0,0,.59-.1,10,10,0,0,0,1.52-.4c.06,0,.13,0,.15-.09a.54.54,0,0,0,.22,0,16.48,16.48,0,0,0,3.3-1.73c.15-.1.36-.16.43-.36l.08,0a11.21,11.21,0,0,0,1,1.06,6.25,6.25,0,0,0,1.19.91.3.3,0,0,0,.34,0,6.29,6.29,0,0,0,1.16-.83c.21-.18.35-.43.58-.6a7.34,7.34,0,0,0,.85,1.14,3.49,3.49,0,0,0,1.15.83.18.18,0,0,0,.16,0,7.73,7.73,0,0,0,2.31-.93s0,0,0,0h0s.06,0,.08,0h0a.36.36,0,0,0,.17-.07A13.67,13.67,0,0,0,68,41.26l1-.76H70.2a.51.51,0,0,1,.25,0,10.34,10.34,0,0,1-3.94,2.56,5.63,5.63,0,0,1-1.41.24c-1,0-2,0-3,0C62,43.26,61.9,43.26,61.83,43.36Z" style="fill:#426eae"/><path d="M76.35,26.35c.34-.76.73-1.5,1.09-2.26.57-1.2,1.2-2.38,1.8-3.58,0-.05.06-.1.09-.16a5.77,5.77,0,0,0,1.22.26l.53.1c.13,0,.16.08.11.2-.28.71-.54,1.42-.82,2.13-.43,1.07-.88,2.12-1.37,3.16-.07.14,0,.19.12.19.32,0,.65,0,1,0a.29.29,0,0,1,.24.07c-.39.73-.83,1.43-1.25,2.14s-1,1.66-1.52,2.49c0,0,0,.05-.06.07s-.1-.08-.16-.08H76.6c-.14,0-.14,0-.08-.15.3-.53.61-1.05.9-1.58.4-.77.79-1.56,1.19-2.34.12-.24.07-.33-.2-.36l-.85-.14A8.36,8.36,0,0,0,76.35,26.35Z" style="fill:#a0ceee"/><path d="M17.45,37.19l-.07.18c-.07,0-.08.09-.11.14-.37.71-.74,1.43-1.12,2.14-.67,1.25-1.33,2.5-2,3.72a3.38,3.38,0,0,0-.36.74c-.23,0-.45,0-.67,0s-.19,0-.15-.19c.16-.55.3-1.12.46-1.67.37-1.27.76-2.52,1.2-3.77q.73-2.15,1.62-4.23c.39-.9.78-1.79,1.2-2.67,0,0,0,0,0,0s.07.12.06.19a1.2,1.2,0,0,0,0,.2v4.33a.62.62,0,0,0,.08.35C17.54,36.82,17.43,37,17.45,37.19Z" style="fill:#bcdef4"/><path d="M64.19,27.76a6,6,0,0,1,.27-.92c.22-.76.46-1.52.7-2.28s.56-1.75.83-2.62c0-.06.05-.12.07-.17a2.19,2.19,0,0,0,.57,0h2.5a.58.58,0,0,1,0,.14c-.19.63-.39,1.26-.59,1.89-.38,1.24-.77,2.48-1.16,3.72,0,.09,0,.21-.12.28a.43.43,0,0,0-.25,0H64.44A.55.55,0,0,1,64.19,27.76Z" style="fill:#83c3ed"/><path d="M51.19,55.21a3.58,3.58,0,0,1-.69,2.28,3,3,0,0,1-1.38,1,3.8,3.8,0,0,1-1.53.17A2.88,2.88,0,0,1,46,58a3.15,3.15,0,0,1-1.07-1.91,5.15,5.15,0,0,1,0-1,3.52,3.52,0,0,1,.56-1.86,2.77,2.77,0,0,1,2-1.24,3.9,3.9,0,0,1,1.86.09,2.72,2.72,0,0,1,1.84,2.07A4.56,4.56,0,0,1,51.19,55.21Zm-1.06,0a3.68,3.68,0,0,0-.07-.79,1.89,1.89,0,0,0-1.2-1.54,2.32,2.32,0,0,0-1.6,0,1.89,1.89,0,0,0-1.18,1.25,3.53,3.53,0,0,0,0,2.18,2,2,0,0,0,2.36,1.41A1.82,1.82,0,0,0,50,56.4,3.48,3.48,0,0,0,50.13,55.22Z" style="fill:#060606"/><path d="M63.67,55.22a3.54,3.54,0,0,1-.7,2.27,2.89,2.89,0,0,1-1.38,1,3.83,3.83,0,0,1-1.54.17A2.89,2.89,0,0,1,58.41,58a3.14,3.14,0,0,1-1-1.78A5.29,5.29,0,0,1,57.33,55a3.35,3.35,0,0,1,.55-1.81,2.79,2.79,0,0,1,2-1.26,3.91,3.91,0,0,1,1.8.11,2.7,2.7,0,0,1,1.84,2.06A4.7,4.7,0,0,1,63.67,55.22Zm-5.29.05a4.55,4.55,0,0,0,0,.52,3.21,3.21,0,0,0,.11.52,2,2,0,0,0,2.35,1.42,1.77,1.77,0,0,0,1.57-1.34,3.86,3.86,0,0,0,0-2.08,1.79,1.79,0,0,0-1.67-1.53,2,2,0,0,0-2.29,1.41A3.92,3.92,0,0,0,58.38,55.27Z" style="fill:#060606"/><path d="M76.35,26.35a8.36,8.36,0,0,1,1.21.16l.85.14c.27,0,.32.12.2.36-.4.78-.79,1.57-1.19,2.34-.29.53-.6,1-.9,1.58-.06.1-.06.15.08.15h.75c.06,0,.14,0,.16.08-.41.7-.87,1.39-1.32,2.07a3.29,3.29,0,0,1-.36.53,3,3,0,0,0-1,0h0s0-.11.07-.15c.19-.3.39-.6.59-.9s.1-.25-.13-.29-.71-.13-1.07-.17a1.5,1.5,0,0,0-.73,0c0-.12.12-.21.13-.34s.08-.13.11-.2c.57-1.16,1.14-2.32,1.7-3.48.27-.55.53-1.11.8-1.66A.75.75,0,0,1,76.35,26.35Z" style="fill:#83c3ed"/><path d="M55.45,20.28A30.13,30.13,0,0,1,57,24.4c.15.49.29,1,.43,1.47H54.82a.25.25,0,0,0-.22.08s0-.06-.05-.09c-.13-.43-.26-.85-.4-1.27s-.33-1.07-.56-1.58A13.44,13.44,0,0,0,53,21.51c-.17-.4-.36-.79-.54-1.19a.65.65,0,0,1,.2,0Z" style="fill:#83c3ed"/><path d="M41.41,31.3c-.18-.7-.37-1.41-.54-2.11s-.33-1.44-.51-2.16-.38-1.59-.58-2.39v-.11h1.77c.11,0,.22,0,.28-.11.14.23.16.51.3.75a1.1,1.1,0,0,0,.11.35c.55,1.64,1,3.31,1.57,5,.09.28.17.56.25.83a.29.29,0,0,0-.16,0C43.07,31.29,42.24,31.22,41.41,31.3Z" style="fill:#83c3ed"/><path d="M55.45,20.28H52.68a.65.65,0,0,0-.2,0l-.22-.38c-1.09-2.09-2.49-3.86-4.86-4.6a7.3,7.3,0,0,1,1-.16,6.11,6.11,0,0,1,3.23.63,6.66,6.66,0,0,1,1.21.83,10.45,10.45,0,0,1,2.26,3A5.89,5.89,0,0,1,55.45,20.28Z" style="fill:#a0ceee"/><path d="M58.83,31.38l.24,1.08H56.58c-.12,0-.22,0-.19.17a6.52,6.52,0,0,0,.22.87H54.33c-.08,0-.16,0-.21.08a4.78,4.78,0,0,1-.19-.48c-.24-.71-.47-1.42-.71-2.13-.06-.32-.19-.62-.28-.94A10,10,0,0,1,52.63,29c0-.11.14-.08.22-.08h2.53c.08.09,0,.22.11.3s0,.09,0,.13c.18.71.37,1.43.56,2.17,0-.13.13-.1.2-.1Zm-2.63.5,0,0v0s0,0,0,0Zm-.09-.33,0,0s0,0,0,0,0,0,0,0A0,0,0,0,0,56.11,31.55Zm0,.17h0Z" style="fill:#66a9e4"/><path d="M66,31.93c-.34.44-.67.89-1,1.33-.63.81-1.28,1.62-2,2.39s-1.43,1.58-2.2,2.33c0,0-.07.17-.15,0a3.74,3.74,0,0,0,.4-.89c.35-.87.67-1.74,1-2.62s.65-2,1-2.93a8.85,8.85,0,0,1,.31-.91,3.78,3.78,0,0,0,.75,0h2.11c.06,0,.14,0,.19,0l-.27.93,0,.16Z" style="fill:#bcdef4"/><path d="M48.41,15.18a7.3,7.3,0,0,0-1,.16c2.37.74,3.77,2.51,4.86,4.6A.41.41,0,0,1,52,20h-2.8l-.19-.3s0-.05,0-.07A14.11,14.11,0,0,0,47.92,18a7.92,7.92,0,0,0-2-1.86.81.81,0,0,0-.47-.21,11,11,0,0,1,1.8-.54,6.32,6.32,0,0,0-.83-.15C47.08,15.16,47.74,15.18,48.41,15.18Z" style="fill:#5087ca"/><path d="M75.79,14.59a2.07,2.07,0,0,1-.3.66c-.09-.07-.16,0-.23,0-.3.11-.59.22-.88.35a8.65,8.65,0,0,0-2.29,1.48A10.86,10.86,0,0,0,70.47,19l0,0H67.59c-.07,0-.18,0-.18-.11a5.15,5.15,0,0,1,.53-.76,7.31,7.31,0,0,1,.74-.83,8.69,8.69,0,0,1,2.1-1.51,10.93,10.93,0,0,1,3.38-1.07A15,15,0,0,1,75.79,14.59Z" style="fill:#66a9e4"/><path d="M65.41,55.69c0-.87,0-1.74,0-2.61,0-.15,0-.18-.19-.18h-.8c-.09,0-.11,0-.11-.12s0-.43,0-.65,0-.11.12-.11h.84c.1,0,.14,0,.14-.14,0-.36,0-.72,0-1.07a2.09,2.09,0,0,1,.55-1.4A2.15,2.15,0,0,1,68,48.85a.2.2,0,0,1,.19.25,3.87,3.87,0,0,0,0,.59c0,.12,0,.14-.14.1a1.54,1.54,0,0,0-.9-.06.8.8,0,0,0-.62.58,2,2,0,0,0-.11.77c0,.26,0,.53,0,.8s0,.16.17.16H67.8c.14,0,.17,0,.17.17a3.25,3.25,0,0,0,0,.54c0,.15,0,.17-.18.17H66.62c-.15,0-.18,0-.18.18,0,1.73,0,3.46,0,5.19,0,.17,0,.22-.21.21h-.62c-.16,0-.21,0-.21-.2C65.42,57.41,65.41,56.55,65.41,55.69Z" style="fill:#060606"/><path d="M52.35,57.14a2.57,2.57,0,0,0,2.13.57.85.85,0,0,0,.76-.93.92.92,0,0,0-.56-.74,10.22,10.22,0,0,0-.94-.46,2.5,2.5,0,0,1-1.15-.88,1.89,1.89,0,0,1-.22-.67,1.63,1.63,0,0,1,0-.73,1.71,1.71,0,0,1,1.08-1.21,3.18,3.18,0,0,1,2.37,0,.2.2,0,0,1,.16.22c0,.29,0,.57,0,.88l-.38-.2a2.4,2.4,0,0,0-.91-.23,1.5,1.5,0,0,0-.76.09.82.82,0,0,0-.55.74.88.88,0,0,0,.42.83,13.54,13.54,0,0,0,1.32.66,2.12,2.12,0,0,1,.89.73,1.73,1.73,0,0,1-.54,2.39,2.83,2.83,0,0,1-1.58.41,3.42,3.42,0,0,1-1.38-.26.25.25,0,0,1-.19-.27C52.36,57.79,52.35,57.48,52.35,57.14Z" style="fill:#060606"/><path d="M25.82,39.13h2.9c.09,0,.19,0,.22.12a7.64,7.64,0,0,1-.71,1.07,8.68,8.68,0,0,1-2.31,2.13,10,10,0,0,1-3.37,1.33A11.66,11.66,0,0,1,21,44a3.29,3.29,0,0,1-.77,0c.35-.1.72-.15,1.07-.28a5.39,5.39,0,0,0,.75-.31,5.09,5.09,0,0,0,1.53-1A7,7,0,0,0,25,40.62C25.29,40.13,25.55,39.63,25.82,39.13Z" style="fill:#5b9fe0"/><path d="M17.55,36.63a.62.62,0,0,1-.08-.35V32a1.2,1.2,0,0,1,0-.2c0-.07.05-.16-.06-.19.15-.39.36-.77.55-1.15a51.9,51.9,0,0,1,2.55-4.55c.06-.09.09-.2.19-.26s.05.13.05.2c0,.58,0,1.15,0,1.73,0,.07,0,.17.11.16-.29.62-.59,1.23-.86,1.85-.52,1.18-1,2.37-1.4,3.59-.23.7-.46,1.41-.68,2.12C17.81,35.7,17.69,36.17,17.55,36.63Z" style="fill:#a0ceee"/><path d="M39.48,52.72v.39s0,.09,0,.12-.08,0-.12,0a2.82,2.82,0,0,0-.81-.36,2.18,2.18,0,0,0-2.77,1.77,3,3,0,0,0,.15,1.9,1.9,1.9,0,0,0,1.53,1.21,2.43,2.43,0,0,0,1.85-.42s.09-.1.15,0,0,.1,0,.15c0,.21,0,.41,0,.62a.23.23,0,0,1-.16.25,3.56,3.56,0,0,1-1.76.37A2.83,2.83,0,0,1,35.76,58a3,3,0,0,1-.92-1.29,3.69,3.69,0,0,1-.23-1.35,3.83,3.83,0,0,1,.49-2,3,3,0,0,1,2.19-1.49,3.71,3.71,0,0,1,2.06.22.17.17,0,0,1,.13.2Z" style="fill:#060606"/><path d="M69.58,52.91h-.91c-.11,0-.15,0-.15-.14a4,4,0,0,0,0-.6c0-.11,0-.15.15-.14h.8c.12,0,.17,0,.16-.16V50.6c0-.1,0-.16.14-.19s.49-.16.73-.24.17,0,.16.11v1.6c0,.13,0,.15.15.15h1.33c.12,0,.16,0,.15.15a5.23,5.23,0,0,0,0,.56c0,.13,0,.17-.16.17h-1.3c-.12,0-.17,0-.17.16v3.5a3.15,3.15,0,0,0,0,.52c.1.58.61.7,1.06.65a.69.69,0,0,0,.36-.13c.13-.09.17,0,.16.12s0,.23,0,.35c0,.38-.06.43-.45.5a2.85,2.85,0,0,1-1,0,1.35,1.35,0,0,1-1.1-1.14,3.82,3.82,0,0,1-.06-.83V53.14c0-.07,0-.13,0-.2S69.6,52.91,69.58,52.91Z" style="fill:#060606"/><path d="M35.53,24.08l-1.78,2.31c-.24.32-.45.66-.71,1,.07-.26.14-.53.22-.78s.08-.27-.2-.27H30.42c.06-.08.11-.18.18-.26.55-.71,1.09-1.43,1.65-2.12a2.72,2.72,0,0,1,.58-.64.57.57,0,0,0,.26,0c.37,0,.75,0,1.13,0,.07,0,.15.1.2-.06.24-.67.49-1.33.75-2a1,1,0,0,1,.24-.48,1.93,1.93,0,0,1,0,.24v2.82C35.42,24,35.39,24.06,35.53,24.08Z" style="fill:#83c3ed"/><path d="M46.41,15.19a6.32,6.32,0,0,1,.83.15,11,11,0,0,0-1.8.54,5.2,5.2,0,0,0-.92.37A16.67,16.67,0,0,0,41.66,18a5.91,5.91,0,0,0-1,.84s0,0-.07,0c-.25.27-.56.48-.82.73-.06,0-.08-.05-.1-.09q-.31-.53-.66-1a4.49,4.49,0,0,1-.4-.57l.19-.15a3.17,3.17,0,0,0,.56-.4l.08,0,.15-.08a14.4,14.4,0,0,1,1.49-.82c.42-.2.85-.38,1.27-.56a1.66,1.66,0,0,0,.21-.06,10,10,0,0,1,2.09-.5l.82-.11A7.85,7.85,0,0,1,46.41,15.19Z" style="fill:#365999"/><path d="M41.41,31.3c.83-.08,1.66,0,2.49,0a.29.29,0,0,1,.16,0c.42,1.23.81,2.47,1.27,3.69H42.75a.64.64,0,0,0-.24,0,12.05,12.05,0,0,1-.4-1.2c-.16-.51-.3-1-.45-1.56C41.58,32,41.5,31.63,41.41,31.3Z" style="fill:#71b0e4"/><path d="M69,40.5l-1,.76a13.67,13.67,0,0,1-1.29.85.36.36,0,0,1-.17.07c0-.07.1-.09.15-.13a10.88,10.88,0,0,0,2.49-2.44s0,0,.06,0A28.89,28.89,0,0,0,71.47,36l.06-.07.65-1.16.06,0c.46.07.92.14,1.38.23.18,0,.19.08.09.24l-.17.22-.5.67h.88c.08,0,.16,0,.2.08a27.64,27.64,0,0,1-1.77,2.27,7,7,0,0,0-1,0,.45.45,0,0,0-.37.16c-.39.39-.76.79-1.18,1.15S69.24,40.25,69,40.5Z" style="fill:#5e99d6"/><path d="M66.33,30.74c0-.06-.13,0-.19,0H64a3.78,3.78,0,0,1-.75,0,7.11,7.11,0,0,1,.26-.9c.17-.59.36-1.17.55-1.76a.66.66,0,0,1,.1-.25.55.55,0,0,0,.25,0H67a.43.43,0,0,1,.25,0,1.92,1.92,0,0,1,0,.22c-.15.44-.28.89-.42,1.34S66.51,30.3,66.33,30.74Z" style="fill:#a0ceee"/><path d="M55.49,29.18c-.07-.08,0-.21-.11-.3a.8.8,0,0,0-.07-.34c-.22-.82-.45-1.63-.67-2.45,0,0,0-.09,0-.11v0a.25.25,0,0,1,.22-.08h2.63c.28,1,.54,2,.78,3,0,0,0,.1,0,.14H55.74C55.61,29,55.48,29,55.49,29.18Z" style="fill:#71b0e4"/><path d="M42.12,53.25a1.7,1.7,0,0,1,1.57-1.31,1.81,1.81,0,0,1,.57,0c.09,0,.14.06.13.17s0,.53,0,.8c0,.1,0,.12-.13.08a1.39,1.39,0,0,0-1.48.15,2,2,0,0,0-.62,1.08,4.8,4.8,0,0,0-.11,1.14c0,1,0,1.94,0,2.92,0,.14,0,.18-.18.17h-.7c-.11,0-.16,0-.16-.14q0-3.09,0-6.18c0-.11,0-.13.15-.13h.72c.13,0,.17,0,.17.16,0,.35,0,.7,0,1.06,0,0,0,.08,0,.08S42.12,53.29,42.12,53.25Z" style="fill:#060606"/><path d="M20.9,27.69c-.13,0-.11-.09-.11-.16,0-.58,0-1.15,0-1.73,0-.07,0-.15-.05-.2a9,9,0,0,1,.67-1.06c.49-.76,1-1.49,1.58-2.2a24.43,24.43,0,0,1,1.6-1.93l1.06-1.13a4.66,4.66,0,0,1,.65-.61c0,.23,0,.47,0,.7,0,.08,0,.16.11.16-.58.67-1.18,1.33-1.72,2-.73,1-1.4,1.94-2,3S21.44,26.61,20.9,27.69Z" style="fill:#83c3ed"/><path d="M67.41,18.94c0,.15.11.11.18.11h2.84c0,.05,0,.1-.05.14a13.82,13.82,0,0,0-1.22,2.58l0,0h-2.5a2.19,2.19,0,0,1-.57,0,10.2,10.2,0,0,1,.6-1.5,12.19,12.19,0,0,1,.7-1.28Z" style="fill:#71b0e4"/><path d="M52,43.19a2.91,2.91,0,0,1-.59.1c-.06,0-.13,0-.16.07-.48,0-1,0-1.45,0a5.63,5.63,0,0,1-3-1.17,7.07,7.07,0,0,1-1.42-1.47c0-.13.07-.14.18-.14H48.2a.73.73,0,0,1,.09.08,8,8,0,0,0,1,1,6.8,6.8,0,0,0,1.31.94A6.94,6.94,0,0,0,52,43.19Z" style="fill:#5087ca"/><path d="M42.51,35a.64.64,0,0,1,.24,0h2.58l.07.22a.09.09,0,0,0,0,.08l.11.26c.1.25.21.49.3.74.19.54.47,1,.67,1.57a.45.45,0,0,1-.23,0H43.91c-.11,0-.22,0-.24.15A24.93,24.93,0,0,1,42.51,35Z" style="fill:#68a7e1"/><path d="M56.61,33.5a6.52,6.52,0,0,1-.22-.87c0-.16.07-.17.19-.17h2.49c.15.45.23.92.35,1.38l.42,1.67c-.81,0-1.63,0-2.45,0-.16,0-.2.05-.18.19-.05,0-.05-.09-.06-.13-.11-.39-.21-.78-.32-1.17A5.63,5.63,0,0,1,56.61,33.5Z" style="fill:#5e99d6"/><path d="M74.12,36.22c0-.09-.12-.08-.2-.08H73l.5-.67.17-.22c.1-.16.09-.21-.09-.24-.46-.09-.92-.16-1.38-.23l-.06,0a2,2,0,0,1,.23-.46c.37-.71.69-1.45,1.1-2.14a1.5,1.5,0,0,1,.73,0c.36,0,.71.11,1.07.17s.26.09.13.29-.4.6-.59.9c0,0,0,.1-.07.15v0l0,0a3,3,0,0,1,1,0c-.32.52-.68,1-1,1.53C74.58,35.6,74.37,35.93,74.12,36.22Z" style="fill:#71b0e4"/><path d="M43.67,38c0-.15.13-.15.24-.15h2.38a.45.45,0,0,0,.23,0l.07.1a14.52,14.52,0,0,0,1,1.75l.59.87H45.47c-.11,0-.19,0-.18.14a4.53,4.53,0,0,1-.58-.8A15,15,0,0,1,43.67,38Z" style="fill:#5e99d6"/><path d="M13.75,44.11a3.38,3.38,0,0,1,.36-.74c.71-1.22,1.37-2.47,2-3.72.38-.71.75-1.43,1.12-2.14,0,0,0-.12.11-.14-.3,1.19-.56,2.38-.79,3.58-.14.8-.28,1.6-.39,2.41,0,.25-.07.49-.11.74Z" style="fill:#5b9fe0"/><path d="M32,55.25c0-1,0-2,0-3,0-.15,0-.2.18-.19h.71c.12,0,.15,0,.15.16,0,.93,0,1.86,0,2.79,0,1.11,0,2.22,0,3.33,0,.14,0,.18-.17.17h-.71c-.13,0-.16,0-.16-.16Z" style="fill:#060606"/><path d="M55.49,29.18c0-.19.12-.19.25-.19h2.51c.15.49.24,1,.37,1.5.08.29.14.59.21.89H56.27c-.07,0-.16,0-.2.1-.19-.74-.38-1.46-.56-2.17C55.5,29.27,55.5,29.22,55.49,29.18Z" style="fill:#68a7e1"/><path d="M35.53,24.08c-.14,0-.11-.13-.11-.22V21a1.93,1.93,0,0,0,0-.24l.05-.26h0s0-.06,0-.09a3.41,3.41,0,0,1,.6-.6,11.91,11.91,0,0,1,1.08-.92,1.24,1.24,0,0,1,0,.33v2.57c0,.07-.05.17.08.2Z" style="fill:#71b0e4"/><path d="M42.32,15.85c-.42.18-.85.36-1.27.56a14.4,14.4,0,0,0-1.49.82l-.15.08c-.18-.4-.37-.8-.54-1.21,0-.09-.08-.11-.16-.05s-.27.17-.39.27-.1.07-.17,0a5.28,5.28,0,0,0-.92-.54c-.09,0-.1-.1-.06-.19a1.3,1.3,0,0,0,.15-.43H42a2,2,0,0,0,.24.62A.3.3,0,0,0,42.32,15.85Z" style="fill:#83c3ed"/><path d="M30.42,26.31h2.64c.28,0,.28,0,.2.27s-.15.52-.22.78c-.25.78-.5,1.56-.74,2.34a.14.14,0,0,1,0,.08c-.18-.14-.27-.18-.83,0,.1-.25.3-.43.39-.66.25-.31.45-.65.68-1,0-.06.13-.12.08-.21s-.14-.05-.22-.05h-2.8c-.07,0-.17.05-.2-.07a2.75,2.75,0,0,1,.36-.53A10.8,10.8,0,0,1,30.42,26.31Z" style="fill:#71b0e4"/><path d="M41.83,24.41c-.06.12-.17.11-.28.11H39.78l-.45-1.72c-.06-.25-.14-.49-.21-.74a2.59,2.59,0,0,1,.56,0h1c.06,0,.14,0,.16-.08a1,1,0,0,1,.08.14c.15.35.29.7.43,1.05S41.7,24,41.83,24.41Z" style="fill:#71b0e4"/><path d="M37.29,22c-.13,0-.08-.13-.08-.2V19.26a1.24,1.24,0,0,0,0-.33,5.39,5.39,0,0,1,.71-.55,4.74,4.74,0,0,0,.3.79,13.07,13.07,0,0,1,.48,1.37v.06C38.18,21.06,37.75,21.56,37.29,22Z" style="fill:#66a9e4"/><path d="M38.66,20.6v-.06c.06,0,.09,0,.13-.07l.79-.75s.08-.11.16-.11a.59.59,0,0,0,.09.2c.19.37.4.73.58,1.11s.22.53.37.77l.08.26c0,.1-.1.08-.16.08h-1a2.59,2.59,0,0,0-.56,0l-.42-1.43Z" style="fill:#68a7e1"/><path d="M37.32,15.18a1.3,1.3,0,0,1-.15.43c0,.09,0,.15.06.19a5.28,5.28,0,0,1,.92.54c.07.05.1,0,.17,0s.26-.18.39-.27.12,0,.16.05c.17.41.36.81.54,1.21l-.08,0c-.35-.26-.64-.59-1-.84,0,0-.09-.08-.13,0s-.42.27-.51.51L37,16.41a6.11,6.11,0,0,0-2.57-1.12s-.09,0-.11-.06l.07,0C35.35,15.17,36.34,15.16,37.32,15.18Z" style="fill:#a0ceee"/><path d="M69,40.5c.26-.25.52-.5.8-.74S70.57,39,71,38.61a.45.45,0,0,1,.37-.16,7,7,0,0,1,1,0,19.49,19.49,0,0,1-1.9,2.06.51.51,0,0,0-.25,0Z" style="fill:#497dbd"/><path d="M75.17,41.58c0,.54,0,1.08,0,1.62,0,.08,0,.18-.12.18s-.14-.08-.14-.18c0-.65,0-1.3,0-2,0-.06-.06-.18.06-.18s.26-.08.34.1c.19.45.39.9.59,1.35,0,0,0,.1,0,.14s0,.21.12.21.09-.16.13-.24c.23-.51.44-1,.68-1.52.05-.11.2,0,.31,0s.06.08.06.13v2.06c0,.12,0,.11-.13.11s-.14,0-.14-.11c0-.51,0-1,0-1.54v-.14c-.08,0-.09.1-.11.15l-.66,1.48c0,.06,0,.15-.12.16s-.11-.08-.14-.14c-.18-.39-.36-.79-.53-1.18l-.21-.48s0-.08,0-.12A.15.15,0,0,0,75.17,41.58Z" style="fill:#060606"/><path d="M74.67,54.09A1.63,1.63,0,0,1,73,52.32a1.73,1.73,0,0,1,3.45.18A1.7,1.7,0,0,1,74.67,54.09Zm.08-3.21a1.52,1.52,0,1,0,1.51,1.51A1.48,1.48,0,0,0,74.75,50.88Z" style="fill:#060606"/><path d="M33.75,15.21l-1.11.24a10.46,10.46,0,0,0-1.42.51s-.07,0-.08,0h0a.08.08,0,0,0-.08,0h0a.07.07,0,0,0-.07,0h0a.07.07,0,0,0-.08,0h0s-.07,0-.08,0h0a.05.05,0,0,0-.07,0h0a.08.08,0,0,0-.08,0h0a2.75,2.75,0,0,0-.57.28c-.05,0-.1.06-.1.13h0c-.07,0-.11,0-.16.06l-.4.24a3,3,0,0,1,0-.6,8,8,0,0,1,2.15-.92,6.07,6.07,0,0,1,2-.24C33.62,15.17,33.69,15.15,33.75,15.21Z" style="fill:#66a9e4"/><path d="M26.41,19.53c-.11,0-.11-.08-.11-.16,0-.23,0-.47,0-.7a14.17,14.17,0,0,1,1.64-1.37c0,.17,0,.34,0,.51s0,.18.16.16Q27.24,18.74,26.41,19.53Z" style="fill:#71b0e4"/><path d="M32.53,49.07a.65.65,0,0,1,.68.66.7.7,0,0,1-.67.67.62.62,0,0,1-.69-.58C31.83,49.27,32.17,49,32.53,49.07Z" style="fill:#060606"/><path d="M28.09,18c-.12,0-.16,0-.16-.16s0-.34,0-.51h0l0,0,.11-.08,0,0a12.29,12.29,0,0,1,1.13-.75.53.53,0,0,1,.17-.08,3,3,0,0,0,0,.6c0,.05-.07.06-.1.09l-1.09.8,0,0h0a.07.07,0,0,0-.07,0Z" style="fill:#68a7e1"/><path d="M73.61,42.35c0-.29,0-.57,0-.86s0-.19-.18-.17h-.37c-.11,0-.14,0-.14-.13s0-.13.13-.13H74.4c.11,0,.13,0,.13.13s0,.15-.12.13h-.06c-.15,0-.35-.07-.44,0s0,.28,0,.43c0,.47,0,.94,0,1.41,0,.11,0,.19-.15.19s-.13-.09-.13-.18Z" style="fill:#060606"/><path d="M42.32,15.85a.3.3,0,0,1-.1,0,2,2,0,0,1-.24-.62l1.58,0h1.88l-.82.11a10,10,0,0,0-2.09.5A1.66,1.66,0,0,1,42.32,15.85Z" style="fill:#71b0e4"/><path d="M57.43,43.36a.19.19,0,0,1,.3,0Z" style="fill:#5087ca"/><path d="M61.83,43.36c.07-.1.14-.1.22,0Z" style="fill:#5087ca"/><path d="M55.57,43.36c.08-.14.17,0,.25,0Z" style="fill:#5087ca"/><path d="M42.12,53.25s0,.09,0,.08,0,0,0-.08Z" style="fill:#a0ceee"/><path d="M75.17,41.58a.15.15,0,0,1,0-.13s0,.08,0,.12Z" style="fill:#bcdef4"/><path d="M69.58,52.91s0,0,0,0Z" style="fill:#a0ceee"/><path d="M57.29,43.36h0Z" style="fill:#5087ca"/><path d="M28.12,17.16l0,0S28.1,17.15,28.12,17.16Z" style="fill:#71b0e4"/><path d="M28,17.27l0,0S28,17.26,28,17.27Z" style="fill:#71b0e4"/><path d="M69.16,21.77a13.82,13.82,0,0,1,1.22-2.58s0-.09.05-.14h0l0,0a10.86,10.86,0,0,1,1.62-1.9,8.65,8.65,0,0,1,2.29-1.48c.29-.13.58-.24.88-.35.07,0,.14-.1.23,0-.71,1.49-1.42,3-2.18,4.44s-1.45,2.75-2.21,4.1c-1.23,2.17-2.53,4.3-3.93,6.36l-1,1.42a.17.17,0,0,1-.12.1l.27-.93c.18-.44.3-.89.45-1.34s.27-.9.42-1.34a1.92,1.92,0,0,0,0-.22c.1-.07.09-.19.12-.28.39-1.24.78-2.48,1.16-3.72.2-.63.4-1.26.59-1.89a.58.58,0,0,0,0-.14h0Z" style="fill:#5b9fe0"/><path d="M73.51,32.2c-.41.69-.73,1.43-1.1,2.14a2,2,0,0,0-.23.46L71.53,36l-.06.07a1.85,1.85,0,0,0-.23,0H64.55c.23-.63.46-1.25.68-1.87s.46-1.32.68-2a.46.46,0,0,0,0-.21l.05-.1h7.47a.2.2,0,0,1,.16,0C73.63,32,73.54,32.08,73.51,32.2Z" style="fill:#426eae"/><path d="M30.42,26.31a10.8,10.8,0,0,0-.71,1,2.75,2.75,0,0,0-.36.53l-.6.82a.41.41,0,0,0-.29,0L25,29.18c-1.09.2-2.19.4-3.29.58a1,1,0,0,1-.52,0,.56.56,0,0,1,0-.12c.6-1.19,1.21-2.37,1.83-3.55.54-1,1.09-2,1.68-3,.42,0,.83-.13,1.25-.2l2.29-.4,2-.34,2.31-.4,1.58-.28c.07,0,.15-.06.19.05-.16.13-.28.31-.43.46a11.28,11.28,0,0,0-.8.89c-.11.12-.28.22-.32.4a2.72,2.72,0,0,0-.58.64c-.56.69-1.1,1.41-1.65,2.12C30.53,26.13,30.48,26.23,30.42,26.31Z" style="fill:#426eae"/><path d="M24.78,23.11c-.59,1-1.14,2-1.68,3-.62,1.18-1.23,2.36-1.83,3.55a.61.61,0,0,1-.12.25L19.6,33l-1.94,3.82a3.47,3.47,0,0,1-.21.37c0-.2.09-.37.1-.56.14-.46.26-.93.41-1.38.22-.71.45-1.42.68-2.12.41-1.22.88-2.41,1.4-3.59.27-.62.57-1.23.86-1.85.54-1.08,1.12-2.15,1.76-3.18s1.3-2,2-3c.54-.7,1.14-1.36,1.72-2s1.11-1.05,1.68-1.56l.07-.07.07,0h0l0,0,1.09-.8s.08,0,.1-.09l.4-.24c.05,0,.09-.07.16-.06s-.19.17-.28.25a12.6,12.6,0,0,0-1.88,1.77,21.14,21.14,0,0,0-1.72,2.27C25.66,21.63,25.2,22.36,24.78,23.11Z" style="fill:#5e99d6"/><path d="M32.83,23.29c0-.18.21-.28.32-.4A11.28,11.28,0,0,1,34,22c.15-.15.27-.33.43-.46s.45-.47.69-.69.22-.26.39-.31l-.05.26a1,1,0,0,0-.24.48c-.26.66-.51,1.32-.75,2-.05.16-.13.06-.2.06-.38,0-.76,0-1.13,0A.57.57,0,0,1,32.83,23.29Z" style="fill:#a0ceee"/><path d="M39.74,19.61c-.08,0-.12.06-.16.11l-.79.75s-.07.07-.13.07a13.07,13.07,0,0,0-.48-1.37,4.74,4.74,0,0,1-.3-.79l.62-.48h.08a4.49,4.49,0,0,0,.4.57q.35.49.66,1s0,.09.1.09Z" style="fill:#426eae"/><path d="M38.58,17.89H38.5a8.34,8.34,0,0,0-.67-.78L37.69,17c.09-.24.33-.35.51-.51s.09,0,.13,0c.36.25.65.58,1,.84a3.17,3.17,0,0,1-.56.4Z" style="fill:#83c3ed"/><path d="M30,16.63c0-.07.05-.1.1-.13a2.75,2.75,0,0,1,.57-.28A3.09,3.09,0,0,1,30,16.63Z" style="fill:#83c3ed"/><path d="M30.69,16.22a.08.08,0,0,1,.08,0A.07.07,0,0,1,30.69,16.22Z" style="fill:#83c3ed"/><path d="M30.77,16.18a.05.05,0,0,1,.07,0S30.8,16.18,30.77,16.18Z" style="fill:#83c3ed"/><path d="M30.84,16.15s0,0,.08,0A.09.09,0,0,1,30.84,16.15Z" style="fill:#83c3ed"/><path d="M30.91,16.11a.07.07,0,0,1,.08,0A.08.08,0,0,1,30.91,16.11Z" style="fill:#83c3ed"/><path d="M31,16.07a.07.07,0,0,1,.07,0A.07.07,0,0,1,31,16.07Z" style="fill:#83c3ed"/><path d="M35.49,20.45s0,.07,0,.09S35.47,20.47,35.49,20.45Z" style="fill:#a0ceee"/><path d="M31.06,16a.08.08,0,0,1,.08,0A.11.11,0,0,1,31.06,16Z" style="fill:#83c3ed"/><path d="M31.14,16s.05,0,.08,0Z" style="fill:#83c3ed"/><path d="M17.66,36.82,19.6,33l1.55-3.06a.57.57,0,0,1,.08-.13,1,1,0,0,0,.52,0c1.1-.18,2.2-.38,3.29-.58l3.42-.59a.41.41,0,0,1,.29,0l-.32.49-1.16,1.78s0,.05,0,.07-.07.07-.09.11c-.43.71-.87,1.42-1.29,2.14s-.73,1.22-1.06,1.86l-.38.63a8.75,8.75,0,0,0-1.44.2c-.83.13-1.66.29-2.49.43l-2.2.39Z" style="fill:#3b61a2"/><path d="M25.82,39.13c-.27.5-.53,1-.82,1.49,0-.13-.13-.08-.2-.08H22.17a.37.37,0,0,1-.23,0c0-.15.11-.26.17-.38l1-2c.08-.15.17-.29.25-.43a.59.59,0,0,0,.32.08h2.6c.07,0,.15,0,.21,0a5.16,5.16,0,0,1-.39.78Z" style="fill:#477abe"/><path d="M26.52,37.78c-.06-.06-.14,0-.21,0h-2.6a.59.59,0,0,1-.32-.08v0l0,0c.15-.39.39-.73.57-1.1l.43-.8.38-.63a.38.38,0,0,0,.26.07h2.71c.08,0,.18,0,.23.07l-1.42,2.51S26.54,37.76,26.52,37.78Z" style="fill:#5087ca"/><path d="M21.94,40.5a.37.37,0,0,0,.23,0H24.8c.07,0,.16,0,.2.08a7,7,0,0,1-1.42,1.83,5.09,5.09,0,0,1-1.53,1c0-.1-.1-.07-.16-.07h-1c-.1,0-.23,0-.29,0s.05-.16.09-.24c.32-.79.72-1.55,1.1-2.31A.94.94,0,0,1,21.94,40.5Z" style="fill:#426eae"/><path d="M23.43,37.6l0,0Z" style="fill:#477abe"/><path d="M21.6,50.81c0,.09.08.17,0,.27-.09-.08-.05-.18-.05-.27h0Z" style="fill:#fdfdfd"/><path d="M21.6,50.81h0a.16.16,0,0,1,0-.12S21.61,50.76,21.6,50.81Z" style="fill:#bcdef4"/><path d="M28,35.21c-.05-.1-.15-.07-.23-.07H25.07a.38.38,0,0,1-.26-.07c.33-.64.7-1.24,1.06-1.86s.86-1.43,1.29-2.14c0,0,0-.1.09-.11h3.09c.2,0,.23.06.12.23-.3.48-.61,1-.9,1.44l-1.5,2.5Z" style="fill:#5b9fe0"/><path d="M28.43,29.11l.32-.49.6-.82c0,.12.13.07.2.07h2.8c.08,0,.17,0,.22.05s0,.15-.08.21c-.23.32-.43.66-.68,1a.83.83,0,0,0-.31,0H29.22A3.46,3.46,0,0,0,28.43,29.11Z" style="fill:#68a7e1"/><path d="M64.55,36h6.69a1.85,1.85,0,0,1,.23,0,28.89,28.89,0,0,1-2.25,3.53s0,0-.06,0a1,1,0,0,0-.25,0H63c0-.12.11-.21.16-.31C63.68,38.2,64.12,37.1,64.55,36Z" style="fill:#3b61a2"/><path d="M63,39.57h5.93a1,1,0,0,1,.25,0,10.88,10.88,0,0,1-2.49,2.44s-.12.06-.15.13h0a.11.11,0,0,0-.08,0h0a7.73,7.73,0,0,1-2.31.93.18.18,0,0,1-.16,0,3.49,3.49,0,0,1-1.15-.83,7.34,7.34,0,0,1-.85-1.14v0A10.33,10.33,0,0,0,63,39.57Z" style="fill:#365999"/><path d="M56.61,33.5a5.63,5.63,0,0,0,.22.9c.11.39.21.78.32,1.17,0,0,0,.1.06.13.21.68.41,1.36.63,2a17.9,17.9,0,0,0,.82,2.1.52.52,0,0,1-.1.11l-.9.68-.08,0a15.57,15.57,0,0,1-1.26-1.86,28.68,28.68,0,0,1-1.68-3.65l0-.1c-.17-.46-.36-.91-.49-1.38.05-.08.13-.08.21-.08Z" style="fill:#5b9fe0"/><path d="M57.66,40.62l.9-.68a.52.52,0,0,0,.1-.11,2.74,2.74,0,0,0,.54-.41c.48-.4.94-.83,1.41-1.26.18.53.38,1,.58,1.54s.42.88.63,1.32a.22.22,0,0,0,.12.11v0c-.23.17-.37.42-.58.6a6.29,6.29,0,0,1-1.16.83.3.3,0,0,1-.34,0,6.25,6.25,0,0,1-1.19-.91A11.21,11.21,0,0,1,57.66,40.62Z" style="fill:#3b61a2"/><path d="M48.2,40.58l-.59-.87a14.52,14.52,0,0,1-1-1.75l-.07-.1c-.2-.53-.48-1-.67-1.57-.09-.25-.2-.49-.3-.74a2,2,0,0,1,.24,0c.74,0,1.48,0,2.22,0,0,0,0,.07.05.1a21.88,21.88,0,0,0,1.29,2.5,5.35,5.35,0,0,0,.41.64l.05.12A13.29,13.29,0,0,0,51,40.58a8.16,8.16,0,0,0,2.59,2.12c0,.08-.09.07-.15.09a10,10,0,0,1-1.52.4,6.94,6.94,0,0,1-1.39-.55,6.8,6.8,0,0,1-1.31-.94,8,8,0,0,1-1-1A.73.73,0,0,0,48.2,40.58Z" style="fill:#5b9fe0"/><path d="M53.63,42.7A8.16,8.16,0,0,1,51,40.58a13.29,13.29,0,0,1-1.23-1.67l-.05-.12c.05-.11.16-.07.24-.07h6.32a15.57,15.57,0,0,0,1.26,1.86c-.07.2-.28.26-.43.36a16.48,16.48,0,0,1-3.3,1.73A.54.54,0,0,1,53.63,42.7Z" style="fill:#365999"/><path d="M66.44,42.21a.11.11,0,0,1,.08,0S66.48,42.21,66.44,42.21Z" style="fill:#5e99d6"/><path d="M66.41,42.22h0S66.42,42.24,66.41,42.22Z" style="fill:#5e99d6"/><path d="M54.6,25.94v0s0,.08,0,.11c.22.82.45,1.63.67,2.45a.8.8,0,0,1,.07.34H52.85c-.08,0-.18,0-.22.08a.38.38,0,0,1-.08-.17c-.32-1-.63-2-.95-3s-.65-1.86-1-2.79h3c.23.51.38,1.05.56,1.58s.27.84.4,1.27C54.56,25.88,54.56,25.92,54.6,25.94Z" style="fill:#68a7e1"/><path d="M53.59,23h-3l-.1-.19s0-.11,0-.16A26.72,26.72,0,0,0,49.24,20H52a.41.41,0,0,0,.22,0l.22.38c.18.4.37.79.54,1.19A13.44,13.44,0,0,1,53.59,23Z" style="fill:#5e99d6"/><path d="M48,35.55c-.74-.08-1.48,0-2.22,0a2,2,0,0,0-.24,0l-.11-.26a.09.09,0,0,0,0-.08L45.33,35c-.46-1.22-.85-2.46-1.27-3.69-.08-.27-.16-.55-.25-.83-.52-1.65-1-3.32-1.57-5a1.1,1.1,0,0,1-.11-.35h1.51a.49.49,0,0,0,.24,0,.56.56,0,0,1,0,.08c.64,1.56,1.23,3.14,1.83,4.72A10.23,10.23,0,0,0,46.18,31a1,1,0,0,0,0,.14c.21.55.42,1.09.64,1.64.33.8.61,1.61,1,2.38Z" style="fill:#66a9e4"/><path d="M43.88,25.12a.49.49,0,0,1-.24,0H42.13c-.14-.24-.16-.52-.3-.75-.13-.43-.29-.85-.46-1.27s-.28-.7-.43-1.05a1,1,0,0,0-.08-.14l-.08-.26h1.29c.08,0,.16,0,.2-.08a.33.33,0,0,1,.12.17c.17.36.35.71.52,1.07s.36.78.53,1.18a7.85,7.85,0,0,1,.4,1l0,0Z" style="fill:#5e99d6"/><path d="M43.84,25a7.85,7.85,0,0,0-.4-1c-.17-.4-.35-.79-.53-1.18h7.36a.41.41,0,0,0,.24,0l.1.19c.34.93.69,1.85,1,2.79s.63,2,.95,3a.38.38,0,0,0,.08.17A10,10,0,0,0,52.94,30c.09.32.22.62.28.94H46.41c-.08,0-.16,0-.23,0a10.23,10.23,0,0,1-.42-1.09c-.6-1.58-1.19-3.16-1.83-4.72a.56.56,0,0,0,0-.08v0Z" style="fill:#497dbd"/><path d="M46.18,31c.07-.07.15,0,.23,0h6.81c.24.71.47,1.42.71,2.13a4.78,4.78,0,0,0,.19.48c.13.47.32.92.49,1.38l0,.1H48c-.08,0-.09,0-.09.11-.39-.77-.67-1.58-1-2.38-.22-.55-.43-1.09-.64-1.64A1,1,0,0,1,46.18,31Z" style="fill:#426eae"/><path d="M56.2,31.88l0,0s0,0,0,0v0Z" style="fill:#68a7e1"/><path d="M56.11,31.55a0,0,0,0,1,0,0s0,0,0,0,0,0,0,0Z" style="fill:#68a7e1"/><path d="M56.15,31.72h0Z" style="fill:#68a7e1"/><path d="M50.51,22.81a.41.41,0,0,1-.24,0H42.91c-.17-.36-.35-.71-.52-1.07a.33.33,0,0,0-.12-.17,7,7,0,0,0-.5-.93c-.16-.31-.33-.62-.5-.92H48.8c.09,0,.2,0,.25-.08l.19.3a26.72,26.72,0,0,1,1.22,2.67C50.48,22.7,50.49,22.76,50.51,22.81Z" style="fill:#426eae"/><path d="M49.05,19.68c0,.11-.16.08-.25.08H41.27a9.6,9.6,0,0,1-.64-.93,5.91,5.91,0,0,1,1-.84,16.67,16.67,0,0,1,2.86-1.74,5.2,5.2,0,0,1,.92-.37.81.81,0,0,1,.47.21,7.92,7.92,0,0,1,2,1.86A14.11,14.11,0,0,1,49,19.61S49,19.66,49.05,19.68Z" style="fill:#3b61a2"/><path d="M70.47,19l0,0Z" style="fill:#71b0e4"/><path d="M40.63,18.83a9.6,9.6,0,0,0,.64.93c.17.3.34.61.5.92a7,7,0,0,1,.5.93c0,.1-.12.08-.2.08H40.78c-.15-.24-.24-.51-.37-.77s-.39-.74-.58-1.11a.59.59,0,0,1-.09-.2v0c.26-.25.57-.46.82-.73C40.59,18.8,40.61,18.82,40.63,18.83Z" style="fill:#5087ca"/><path d="M54.64,26.09s0-.07,0-.11S54.64,26.05,54.64,26.09Z" style="fill:#83c3ed"/><path d="M69.16,21.77l0,0Z" style="fill:#83c3ed"/><path d="M45.4,35.21a.09.09,0,0,1,0,.08A.09.09,0,0,1,45.4,35.21Z" style="fill:#71b0e4"/><path d="M74.79,33.76l0,0v0Z" style="fill:#83c3ed"/><path d="M28.23,17.86l-.07,0A.07.07,0,0,1,28.23,17.86Z" style="fill:#71b0e4"/><path d="M28.27,17.82l0,0Z" style="fill:#71b0e4"/><path d="M47.86,35.17c0-.06,0-.11.09-.11h6.69a28.68,28.68,0,0,0,1.68,3.65H50c-.08,0-.19,0-.24.07a5.35,5.35,0,0,1-.41-.64,21.88,21.88,0,0,1-1.29-2.5s0-.07-.05-.1Z" style="fill:#3b61a2"/><path d="M43.84,25l0,0Z" style="fill:#66a9e4"/><path d="M75,52.47c.33.24.41.64.62,1h-.26c-.09,0-.13,0-.16-.11s-.17-.39-.27-.57a.42.42,0,0,0-.39-.25c-.09,0-.13,0-.12.12s0,.46,0,.69-.08.11-.15.11-.16,0-.16-.1c0-.66,0-1.31,0-2,0-.08,0-.13.11-.12s.47,0,.71,0A.58.58,0,0,1,75,52.45Zm-.34-.19h.17a.35.35,0,0,0,.37-.36c0-.22-.1-.33-.34-.36l-.22,0c-.17,0-.26,0-.23.21a1.51,1.51,0,0,1,0,.3C74.38,52.28,74.38,52.28,74.62,52.28Z" style="fill:#060606"/></g></svg>