<svg id="b454ee38-fdbd-48f2-b81e-338ecf51f357" data-name="Capa 1" xmlns="http://www.w3.org/2000/svg" viewBox="0 0 100 100"><title>tech-svg</title><path d="M46.25,5.17a7.67,7.67,0,0,1,7.5,0Q70.88,14.85,88,24.52a7.07,7.07,0,0,1,3.56,6.07V69.41a7.13,7.13,0,0,1-3.83,6.21Q70.67,85.24,53.61,94.88A7.48,7.48,0,0,1,46,94.66L35.78,88.74a6,6,0,0,1-2-1.42c.44-.59,1.22-.66,1.85-.92a24.29,24.29,0,0,0,4-1.88.94.94,0,0,1,1.05.06c2.92,1.67,5.81,3.4,8.74,5,.62.36,1.26-.12,1.79-.41Q68,79.74,84.79,70.3a1.12,1.12,0,0,0,.61-1.09V30.79a1.21,1.21,0,0,0-.71-1.2q-17-9.57-34-19.17a1.19,1.19,0,0,0-1.34,0l-34,19.18a1.19,1.19,0,0,0-.72,1.19V69.21a1.08,1.08,0,0,0,.62,1.08c3,1.72,6,3.42,9.08,5.13a7,7,0,0,0,5.68.76,4.31,4.31,0,0,0,2.79-4.05c0-12.73,0-25.46,0-38.19a1,1,0,0,1,1-1c1.45,0,2.91,0,4.36,0a1,1,0,0,1,1,1.16c0,12.81,0,25.62,0,38.43,0,3.42-1.4,7.13-4.56,8.8C30.68,83.38,25.87,83,22,81c-3.33-1.66-6.5-3.62-9.77-5.4a7.13,7.13,0,0,1-3.83-6.21V30.59a7.07,7.07,0,0,1,3.69-6.15Z" style="fill:#8bc64b"/><path d="M56.18,32.06c5-.32,10.27-.19,14.74,2.25A11.15,11.15,0,0,1,76.35,44a1,1,0,0,1-1.13.77c-1.44,0-2.88,0-4.32,0a1.11,1.11,0,0,1-1-1.08,6.57,6.57,0,0,0-3.15-4.54c-2.65-1.33-5.73-1.27-8.63-1.24-2.11.11-4.39.3-6.18,1.54a3.92,3.92,0,0,0-1.3,4.37c.46,1.1,1.73,1.46,2.77,1.78,6,1.57,12.32,1.41,18.19,3.47,2.43.84,4.8,2.47,5.63,5a10.7,10.7,0,0,1-1.81,10.21,14.31,14.31,0,0,1-7.69,4.15,37,37,0,0,1-11.6.49c-3.63-.41-7.41-1.37-10.21-3.84a10.68,10.68,0,0,1-3.45-8.45,1,1,0,0,1,1.06-.85c1.45,0,2.9,0,4.35,0a1,1,0,0,1,1,1,6.58,6.58,0,0,0,2.45,4.63c3,1.9,6.65,1.77,10,1.83,2.8-.13,5.94-.17,8.22-2a4.55,4.55,0,0,0,1.23-4.34C70.45,55.58,69.11,55,68,54.59c-5.91-1.86-12.31-1.19-18.16-3.3-2.37-.84-4.67-2.42-5.58-4.86a10,10,0,0,1,2-10.37c2.61-2.63,6.38-3.64,10-4Z" style="fill:#8bc64b"/></svg>