<svg id="a4055083-0a40-4802-acbe-73c76c315bdc" data-name="Capa 1" xmlns="http://www.w3.org/2000/svg" viewBox="0 0 100 100"><title>tech-svg</title><path d="M11.63,61c-.51-.49-2.26-3.49-2.74-4s-1.54-1.86-1.64-1.75a26.24,26.24,0,0,1-1.06-4.91,13.94,13.94,0,0,1,.18-2.42c.06-.25.11-.5.17-.75a13.4,13.4,0,0,1,1.19-3,.91.91,0,0,1,.14-.3,20.49,20.49,0,0,1,1.88-2.65,24.08,24.08,0,0,1,1.79-1.85c.27-.27.58-.5.84-.78a.45.45,0,0,0,.12-.06,26.13,26.13,0,0,1,2.41-1.81,40.94,40.94,0,0,1,5.87-3.25c1.59-.72,3.2-1.35,4.85-1.91a64.18,64.18,0,0,1,6.51-1.83c1.54-.35,3.08-.65,4.63-.89,1.32-.21,2.66-.39,4-.53,1.14-.13,2.28-.22,3.41-.31.87-.08,1.75-.12,2.62-.15s1.87,0,2.8-.05h.5l3.19.05c.07.07.16,0,.24,0h.8l2.94.18a3.28,3.28,0,0,0,.69.1l1.62.15c.58.06,1.17.15,1.75.22.2,0,3.64.57,4.1.66,1.21.24,2.42.51,3.62.8l1.57.41c.59.15,1.17.32,1.76.48l1.38.45,1.48.48c1.29.51,2.59,1,3.85,1.57a40.77,40.77,0,0,1,5.48,3A30,30,0,0,1,88,39a20.72,20.72,0,0,1,2.71,2.83,15.12,15.12,0,0,1,2,3.31,11.88,11.88,0,0,1,1.05,4.09,11.28,11.28,0,0,1-.12,2.66,13.3,13.3,0,0,1-1.9,4.89A19.59,19.59,0,0,1,88.09,61a30.16,30.16,0,0,1-3.31,2.53,40.79,40.79,0,0,1-6.32,3.38,52.74,52.74,0,0,1-6,2.18c-2.3.68-4.64,1.26-7,1.71-1.62.31-3.24.57-4.88.77-1.19.16-2.39.27-3.59.38-1,.09-2,.13-3,.2-.35,0-.7,0-1.05,0l-2.43.06c-.5,0-1,0-1.49,0a11.83,11.83,0,0,0-1.33,0l-1,0c-.91,0-1.83,0-2.74-.15h-.42l-.06,0-1.83-.15-1.55-.16c-.55-.06-1.1-.14-1.65-.22l-2.09-.31a10.66,10.66,0,0,0-1.26-.2L35,70.85c-1.33-.23-2.65-.52-4-.84A61.7,61.7,0,0,1,24.1,67.9c-1.54-.57-3.05-1.22-4.54-1.93-.63-.3-1.25-.63-1.86-1-1-.56-2-1.1-2.94-1.72M40.89,52.55l0,0a.49.49,0,0,1,0,.12c-.26,1.35-.51,2.7-.78,4A1,1,0,0,0,41.18,58h5a1,1,0,0,0,1.08-.89c.4-2,.79-4.09,1.19-6.13s.85-4.38,1.27-6.57c0-.12.07-.19.21-.19,1.18,0,2.36,0,3.54,0a3.67,3.67,0,0,1,1.27.2.46.46,0,0,1,.33.4,3,3,0,0,1,0,1c-.24,1.32-.5,2.64-.76,4-.44,2.3-.89,4.6-1.33,6.89A1,1,0,0,0,54,58h4.59a2.19,2.19,0,0,0,1.07-.14.81.81,0,0,1,0,.17c-.33,1.68-.65,3.37-1,5a1,1,0,0,0,1.08,1.31h4.93a1,1,0,0,0,1.18-1c.33-1.73.67-3.46,1-5.19,0-.18.1-.22.27-.22H70.6a25.64,25.64,0,0,0,3.15-.21,10.5,10.5,0,0,0,6.45-3.31,11.57,11.57,0,0,0,3.17-9.79,6.58,6.58,0,0,0-3.94-5.34,10.77,10.77,0,0,0-4.64-1c-3.47,0-6.94,0-10.41,0a1,1,0,0,0-1,.88c-.17.84-.33,1.69-.49,2.53l-.3,1.51c-.1,0-.07-.12-.08-.18A5.44,5.44,0,0,0,62,41.47a4.91,4.91,0,0,0-2.92-2.42,13.89,13.89,0,0,0-4.38-.65H51.14c-.18,0-.24,0-.2-.22.32-1.62.63-3.25,1-4.87A1,1,0,0,0,50.83,32h-5a1,1,0,0,0-1.08.89c-.36,1.79-.7,3.58-1,5.38-.4,2-.79,4.08-1.19,6.13-.09,0-.07-.13-.08-.19a6.81,6.81,0,0,0-3.6-4.7,10.48,10.48,0,0,0-4.91-1.11c-3.47,0-6.94,0-10.41,0a1,1,0,0,0-1.06.9c-.2,1.08-.42,2.17-.63,3.26l-1.38,7.12c-.51,2.62-1,5.25-1.54,7.88-.36,1.89-.73,3.78-1.09,5.67a1,1,0,0,0,1,1.19H24a1,1,0,0,0,1-.84c.34-1.77.69-3.54,1-5.31,0-.17.08-.25.28-.24h2.16a31.65,31.65,0,0,0,4.46-.21,10.75,10.75,0,0,0,6.73-3.65A17.69,17.69,0,0,0,40.89,52.55Z" style="fill:#777aae"/><path d="M11.63,61c-.51-.49-2.26-3.49-2.74-4s-1.54-1.86-1.64-1.75a26.24,26.24,0,0,1-1.06-4.91,13.94,13.94,0,0,1,.18-2.42c.06-.25.11-.5.17-.75a13.4,13.4,0,0,1,1.19-3,.91.91,0,0,1,.14-.3,20.49,20.49,0,0,1,1.88-2.65,24.08,24.08,0,0,1,1.79-1.85c.27-.27.58-.5.84-.78a.45.45,0,0,0,.12-.06,26.13,26.13,0,0,1,2.41-1.81,40.94,40.94,0,0,1,5.87-3.25c1.59-.72,3.2-1.35,4.85-1.91a64.18,64.18,0,0,1,6.51-1.83c1.54-.35,3.08-.65,4.63-.89,1.32-.21,2.66-.39,4-.53,1.14-.13,2.28-.22,3.41-.31.87-.08,1.75-.12,2.62-.15s1.87,0,2.8-.05h.5l3.19.05c.07.07.16,0,.24,0h.8l2.94.18a3.28,3.28,0,0,0,.69.1l1.62.15c.58.06,1.17.15,1.75.22.2,0,3.64.57,4.1.66,1.21.24,2.42.51,3.62.8l1.57.41c.59.15,1.17.32,1.76.48l1.38.45,1.48.48c1.29.51,2.59,1,3.85,1.57a40.77,40.77,0,0,1,5.48,3A30,30,0,0,1,88,39a20.72,20.72,0,0,1,2.71,2.83,15.12,15.12,0,0,1,2,3.31,11.88,11.88,0,0,1,1.05,4.09,11.28,11.28,0,0,1-.12,2.66,13.3,13.3,0,0,1-1.9,4.89A19.59,19.59,0,0,1,88.09,61a30.16,30.16,0,0,1-3.31,2.53,40.79,40.79,0,0,1-6.32,3.38,52.74,52.74,0,0,1-6,2.18c-2.3.68-4.64,1.26-7,1.71-1.62.31-3.24.57-4.88.77-1.19.16-2.39.27-3.59.38-1,.09-2,.13-3,.2-.35,0-.7,0-1.05,0l-2.43.06c-.5,0-1,0-1.49,0a11.83,11.83,0,0,0-1.33,0l-1,0c-.91,0-1.83,0-2.74-.15h-.42l-.06,0-1.83-.15-1.55-.16c-.55-.06-1.1-.14-1.65-.22l-2.09-.31a10.66,10.66,0,0,0-1.26-.2L35,70.85c-1.33-.23-2.65-.52-4-.84A61.7,61.7,0,0,1,24.1,67.9c-1.54-.57-3.05-1.22-4.54-1.93-.63-.3-1.25-.63-1.86-1-1-.56-2-1.1-2.94-1.72M40.89,52.55l0,0a.49.49,0,0,1,0,.12c-.26,1.35-.51,2.7-.78,4A1,1,0,0,0,41.18,58h5a1,1,0,0,0,1.08-.89c.4-2,.79-4.09,1.19-6.13s.85-4.38,1.27-6.57c0-.12.07-.19.21-.19,1.18,0,2.36,0,3.54,0a3.67,3.67,0,0,1,1.27.2.46.46,0,0,1,.33.4,3,3,0,0,1,0,1c-.24,1.32-.5,2.64-.76,4-.44,2.3-.89,4.6-1.33,6.89A1,1,0,0,0,54,58h4.59a2.19,2.19,0,0,0,1.07-.14.81.81,0,0,1,0,.17c-.33,1.68-.65,3.37-1,5a1,1,0,0,0,1.08,1.31h4.93a1,1,0,0,0,1.18-1c.33-1.73.67-3.46,1-5.19,0-.18.1-.22.27-.22H70.6a25.64,25.64,0,0,0,3.15-.21,10.5,10.5,0,0,0,6.45-3.31,11.57,11.57,0,0,0,3.17-9.79,6.58,6.58,0,0,0-3.94-5.34,10.77,10.77,0,0,0-4.64-1c-3.47,0-6.94,0-10.41,0a1,1,0,0,0-1,.88c-.17.84-.33,1.69-.49,2.53l-.3,1.51c-.1,0-.07-.12-.08-.18A5.44,5.44,0,0,0,62,41.47a4.91,4.91,0,0,0-2.92-2.42,13.89,13.89,0,0,0-4.38-.65H51.14c-.18,0-.24,0-.2-.22.32-1.62.63-3.25,1-4.87A1,1,0,0,0,50.83,32h-5a1,1,0,0,0-1.08.89c-.36,1.79-.7,3.58-1,5.38-.4,2-.79,4.08-1.19,6.13-.09,0-.07-.13-.08-.19a6.81,6.81,0,0,0-3.6-4.7,10.48,10.48,0,0,0-4.91-1.11c-3.47,0-6.94,0-10.41,0a1,1,0,0,0-1.06.9c-.2,1.08-.42,2.17-.63,3.26l-1.38,7.12c-.51,2.62-1,5.25-1.54,7.88-.36,1.89-.73,3.78-1.09,5.67a1,1,0,0,0,1,1.19H24a1,1,0,0,0,1-.84c.34-1.77.69-3.54,1-5.31,0-.17.08-.25.28-.24h2.16a31.65,31.65,0,0,0,4.46-.21,10.75,10.75,0,0,0,6.73-3.65A17.69,17.69,0,0,0,40.89,52.55Z" style="fill:#777aae"/><path d="M40.89,52.55a17.69,17.69,0,0,1-1.23,1.62,10.75,10.75,0,0,1-6.73,3.65,31.65,31.65,0,0,1-4.46.21H26.31c-.2,0-.25.07-.28.24-.34,1.77-.69,3.54-1,5.31a1,1,0,0,1-1,.84H18.81a1,1,0,0,1-1-1.19c.36-1.89.73-3.78,1.09-5.67.51-2.63,1-5.26,1.54-7.88l1.38-7.12c.21-1.09.43-2.18.63-3.26a1,1,0,0,1,1.06-.9c3.47,0,6.94,0,10.41,0a10.48,10.48,0,0,1,4.91,1.11,6.81,6.81,0,0,1,3.6,4.7c0,.06,0,.14.08.19.4-2,.79-4.09,1.19-6.13.35-1.8.69-3.59,1-5.38A1,1,0,0,1,45.84,32h5a1,1,0,0,1,1.06,1.3c-.32,1.62-.63,3.25-1,4.87,0,.18,0,.22.2.22h3.54a13.89,13.89,0,0,1,4.38.65A4.91,4.91,0,0,1,62,41.47a5.44,5.44,0,0,1,.49,1.67c0,.06,0,.13.08.18l.3-1.51c.16-.84.32-1.69.49-2.53a1,1,0,0,1,1-.88c3.47,0,6.94,0,10.41,0a10.77,10.77,0,0,1,4.64,1,6.58,6.58,0,0,1,3.94,5.34,11.57,11.57,0,0,1-3.17,9.79,10.5,10.5,0,0,1-6.45,3.31A25.64,25.64,0,0,1,70.6,58H67.17c-.17,0-.24,0-.27.22-.33,1.73-.67,3.46-1,5.19a1,1,0,0,1-1.18,1H59.79a1,1,0,0,1-1.08-1.31c.33-1.68.65-3.37,1-5a.81.81,0,0,0,0-.17,2.19,2.19,0,0,1-1.07.14H54A1,1,0,0,1,53,56.74c.44-2.29.89-4.59,1.33-6.89.26-1.31.52-2.63.76-4a3,3,0,0,0,0-1,.46.46,0,0,0-.33-.4,3.67,3.67,0,0,0-1.27-.2c-1.18,0-2.36,0-3.54,0-.14,0-.18.07-.21.19-.42,2.19-.85,4.38-1.27,6.57s-.79,4.08-1.19,6.13a1,1,0,0,1-1.08.89h-5a1,1,0,0,1-1.06-1.3c.27-1.34.52-2.69.78-4a.49.49,0,0,0,0-.12s0-.06,0-.07S40.9,52.53,40.89,52.55ZM29.47,39.39H23.68c-.18,0-.24.06-.27.23-.11.61-.23,1.22-.35,1.84Q22,47.18,20.83,52.91c-.67,3.43-1.33,6.86-2,10.29,0,.18,0,.23.19.23H23.8c.17,0,.23,0,.27-.22.37-2,.75-3.9,1.12-5.86,0-.27.15-.32.41-.32,2.17,0,4.34.1,6.51-.11A10,10,0,0,0,36,55.81a10.81,10.81,0,0,0,5.5-11,5.69,5.69,0,0,0-2.73-4.22,8.9,8.9,0,0,0-4.33-1.21C32.7,39.33,30.92,39.41,29.47,39.39Zm40.87,0H64.57c-.17,0-.25,0-.29.23-.17.93-.36,1.85-.54,2.78-.65,3.34-1.29,6.67-1.94,10q-1,5.41-2.11,10.82c0,.2,0,.21.18.21h4.81c.16,0,.22,0,.25-.2.38-2,.77-3.94,1.14-5.91,0-.24.13-.28.35-.29,2.19,0,4.38.1,6.56-.11a10.18,10.18,0,0,0,3.83-1.06,10.78,10.78,0,0,0,5.59-11,5.64,5.64,0,0,0-2.75-4.23,8.78,8.78,0,0,0-4.27-1.2C73.59,39.33,71.8,39.41,70.34,39.39ZM50.94,33l-.06,0h-5c-.15,0-.15.08-.17.19-.51,2.65-1,5.3-1.54,8Q42.64,49,41.11,56.83c0,.19,0,.21.18.21,1.56,0,3.12,0,4.67,0,.25,0,.33-.07.37-.3l2.58-13.31c0-.14.07-.17.21-.17,1.46,0,2.92,0,4.38,0a4.43,4.43,0,0,1,1.61.27,1.38,1.38,0,0,1,.91,1A3.4,3.4,0,0,1,56,46q-.57,3-1.17,6.09c-.3,1.56-.61,3.13-.91,4.69,0,.11-.08.23.14.23H59c.14,0,.18,0,.2-.18.1-.53.2-1.06.31-1.59.55-2.85,1.11-5.71,1.66-8.56a11.67,11.67,0,0,0,.35-3,4.36,4.36,0,0,0-.54-2A3.94,3.94,0,0,0,58.72,40a12.33,12.33,0,0,0-3.95-.59c-1.62,0-3.23,0-4.85,0-.12,0-.24,0-.19-.17.28-1.39.54-2.77.81-4.16C50.68,34.38,50.81,33.7,50.94,33Z" style="fill:#fbfbfb"/><path d="M29.47,39.39c1.45,0,3.23-.06,5,0a8.9,8.9,0,0,1,4.33,1.21,5.69,5.69,0,0,1,2.73,4.22,10.81,10.81,0,0,1-5.5,11,10,10,0,0,1-3.93,1.11c-2.17.21-4.34.09-6.51.11-.26,0-.36,0-.41.32-.37,2-.75,3.91-1.12,5.86,0,.18-.1.22-.27.22H19c-.2,0-.22,0-.19-.23.68-3.43,1.34-6.86,2-10.29q1.11-5.73,2.23-11.46c.12-.62.24-1.23.35-1.84,0-.17.09-.23.27-.23Zm.91,3.79H28.15c-.16,0-.21,0-.24.2-.08.46-.17.93-.27,1.4C27.11,47.53,26.57,50.29,26,53c0,.17,0,.21.18.21h3A12.49,12.49,0,0,0,31.82,53a4.63,4.63,0,0,0,3-2,8.46,8.46,0,0,0,1.27-5.11,2.34,2.34,0,0,0-1.24-2.07,4.89,4.89,0,0,0-1.53-.49A17.57,17.57,0,0,0,30.38,43.18Z" style="fill:#060606"/><path d="M70.34,39.39c1.46,0,3.25-.06,5,0a8.78,8.78,0,0,1,4.27,1.2,5.64,5.64,0,0,1,2.75,4.23,10.78,10.78,0,0,1-5.59,11A10.18,10.18,0,0,1,73,56.92c-2.18.21-4.37.09-6.56.11-.22,0-.31,0-.35.29-.37,2-.76,3.94-1.14,5.91,0,.16-.09.2-.25.2H59.87c-.17,0-.22,0-.18-.21q1.06-5.4,2.11-10.82c.65-3.34,1.29-6.67,1.94-10,.18-.93.37-1.85.54-2.78,0-.2.12-.23.29-.23Zm.92,3.79H69c-.16,0-.22,0-.26.2q-.91,4.8-1.86,9.58c0,.29,0,.29.26.29H70A12.69,12.69,0,0,0,72.69,53a4.6,4.6,0,0,0,3-2A8.32,8.32,0,0,0,77,45.76a2.36,2.36,0,0,0-1.67-2.16,5.81,5.81,0,0,0-1.09-.28A18.36,18.36,0,0,0,71.26,43.18Z" style="fill:#060606"/><path d="M50.94,33c-.13.68-.26,1.36-.4,2-.27,1.39-.53,2.77-.81,4.16,0,.21.07.17.19.17,1.62,0,3.23,0,4.85,0a12.33,12.33,0,0,1,3.95.59A3.94,3.94,0,0,1,61,41.72a4.36,4.36,0,0,1,.54,2,11.67,11.67,0,0,1-.35,3c-.55,2.85-1.11,5.71-1.66,8.56-.11.53-.21,1.06-.31,1.59,0,.13-.06.18-.2.18H54.08c-.22,0-.16-.12-.14-.23.3-1.56.61-3.13.91-4.69q.6-3,1.17-6.09a3.4,3.4,0,0,0,0-1.49,1.38,1.38,0,0,0-.91-1,4.43,4.43,0,0,0-1.61-.27c-1.46,0-2.92,0-4.38,0-.14,0-.18,0-.21.17L46.33,56.75c0,.23-.12.3-.37.3-1.55,0-3.11,0-4.67,0-.17,0-.22,0-.18-.21Q42.66,49,44.17,41.14c.51-2.65,1-5.3,1.54-8,0-.11,0-.19.17-.19h5Z" style="fill:#060606"/><path d="M40.89,52.55s0-.07,0,0,0,0,0,.07Z" style="fill:#777aae"/><path d="M30.38,43.18a17.57,17.57,0,0,1,3,.14,4.89,4.89,0,0,1,1.53.49,2.34,2.34,0,0,1,1.24,2.07A8.46,8.46,0,0,1,34.87,51a4.63,4.63,0,0,1-3,2,12.49,12.49,0,0,1-2.58.27h-3c-.17,0-.21,0-.18-.21.54-2.75,1.08-5.51,1.61-8.26.1-.47.19-.94.27-1.4,0-.15.08-.21.24-.2Zm-1.44,9.07A12.05,12.05,0,0,0,31.46,52a3.76,3.76,0,0,0,2.66-1.7,7.82,7.82,0,0,0,1-4.33A1.53,1.53,0,0,0,34,44.47a6.84,6.84,0,0,0-1.49-.26c-1.16-.07-2.31,0-3.47,0-.16,0-.23,0-.26.2-.32,1.68-.64,3.34-1,5-.17.85-.33,1.7-.5,2.55-.06.31-.06.32.25.32Z" style="fill:#fafafb"/><path d="M71.26,43.18a18.36,18.36,0,0,1,3,.14,5.81,5.81,0,0,1,1.09.28A2.36,2.36,0,0,1,77,45.76,8.32,8.32,0,0,1,75.74,51a4.6,4.6,0,0,1-3,2,12.69,12.69,0,0,1-2.68.27H67.18c-.31,0-.31,0-.26-.29q.94-4.78,1.86-9.58c0-.17.1-.2.26-.2Zm.6,1h-2c-.16,0-.22,0-.25.2Q68.87,48.2,68.11,52c0,.2,0,.24.21.24H70A11.41,11.41,0,0,0,72.34,52a3.81,3.81,0,0,0,2.93-2.2A8.3,8.3,0,0,0,76,46.3a1.66,1.66,0,0,0-1.52-1.91A11.75,11.75,0,0,0,71.86,44.17Z" style="fill:#fafafb"/><path d="M28.94,52.25H27.51c-.31,0-.31,0-.25-.32.17-.85.33-1.7.5-2.55.33-1.67.65-3.33,1-5,0-.17.1-.2.26-.2,1.16,0,2.31,0,3.47,0a6.84,6.84,0,0,1,1.49.26A1.53,1.53,0,0,1,35.16,46a7.82,7.82,0,0,1-1,4.33A3.76,3.76,0,0,1,31.46,52,12.05,12.05,0,0,1,28.94,52.25Z" style="fill:#777aaf"/><path d="M71.86,44.17a11.75,11.75,0,0,1,2.66.22A1.66,1.66,0,0,1,76,46.3a8.3,8.3,0,0,1-.77,3.54A3.81,3.81,0,0,1,72.34,52a11.41,11.41,0,0,1-2.33.21H68.32c-.19,0-.25,0-.21-.24q.75-3.81,1.49-7.64c0-.16.09-.21.25-.2Z" style="fill:#777aaf"/></svg>