<svg id="a017aa05-8f38-459c-9fcc-32156ec9095c" data-name="Capa 1" xmlns="http://www.w3.org/2000/svg" viewBox="0 0 100 100"><title>tech-svg</title><g id="f43cca25-c522-404c-b129-54ba4f4b7f15" data-name="G22zjg"><path d="M74.86,70.71a78.71,78.71,0,0,1-10.64,0c-.1-.77.49-1.15.89-1.66,3.27-4.22,7.39-7.63,10.93-11.6C80.8,52.11,86,47.14,91,42c.51-.52,1-1.11,1.79-1.12.49.43,0,1.27.67,1.62v8.69c-1.87.35-2.63,2-3.79,3.19-4.37,4.51-8.75,9-13.11,13.52A5,5,0,0,0,74.86,70.71Z" style="fill:#f0ca4b"/><path d="M56.71,73.85H67.37c.12.92-.61,1.37-1.1,2-.94,1.14-2.41,1.83-2.85,3.38-3.77-.39-5.16,1-5.07,5-.18.19-.35.38-.54.56-2.67,2.57-5.6,4.89-7.42,8.23-.91.21-2-.37-2.77.43H45.25c-1.46-.84-3.24-.45-4.73-1.19A4.16,4.16,0,0,1,42,89.79L55.74,75.68C56.24,75.16,56.81,74.68,56.71,73.85Z" style="fill:#f0cc4d"/><path d="M63.42,79.19c.44-1.55,1.91-2.24,2.85-3.38.49-.59,1.22-1,1.1-2,3.88-.28,3.88-.28,3.89,3.61,0,1.76-.07,3.54,0,5.3a7.53,7.53,0,0,1-3.94,7.16c-3.19,2-6.79,2.62-10.43,3.12-.48.06-1.08-.2-1.4.42H53.15c-.82-.81-1.85-.22-2.76-.43,1.82-3.34,4.75-5.66,7.42-8.23.19-.18.36-.37.54-.56,1.14,1.39,2.31,2.78,4.37,2.34a3.56,3.56,0,0,0,3.06-2.92A3.88,3.88,0,0,0,63.42,79.19Z" style="fill:#efc84b"/><path d="M74.86,70.71a5,5,0,0,1,1.67-2.79c4.36-4.52,8.74-9,13.11-13.52,1.16-1.19,1.92-2.84,3.79-3.19v6.32c-.23.21-.64.41-.66.65-.84,7.32-6.15,13.53-15.37,12.68C76.55,70.78,75.71,70.76,74.86,70.71Z" style="fill:#efc84b"/><path d="M50.39,93c.91.21,1.94-.38,2.76.43H47.62C48.44,92.66,49.48,93.24,50.39,93Z" style="fill:#f4da5e"/><path d="M56.71,73.85c.1.83-.47,1.31-1,1.83L42,89.79a4.16,4.16,0,0,0-1.48,2.48c-4-.69-7.64-2.1-10-5.74,4.38-5.48,9.63-10.15,14.34-15.33,5-5.52,10.43-10.7,15.58-16.12C61.5,54,62.86,53,63,51.28a11.32,11.32,0,0,0,10.28-7.57c.3-.12.68-.15.88-.36,2.26-2.35,4.71-4.52,6.82-7a34.73,34.73,0,0,1,5.89-5.73c3.63,2.49,5.09,6.21,5.86,10.32-.82,0-1.28.6-1.79,1.12C86,47.14,80.8,52.11,76,57.45c-3.54,4-7.66,7.38-10.93,11.6-.4.51-1,.89-.89,1.66-4.1.35-8.21.07-12.32.14-1,0-1.9-.14-1.92,1.43s.78,1.5,1.84,1.49C53.45,73.75,55.08,73.82,56.71,73.85Z" style="fill:#f1d052"/><path d="M63,51.28C62.86,53,61.5,54,60.47,55.08,55.32,60.5,49.92,65.68,44.89,71.2c-4.71,5.18-10,9.85-14.34,15.33a5.65,5.65,0,0,1-1.43-4c-.05-4.39,0-8.79.06-13.18,1,.12,1.52-.65,2.11-1.25,4.39-4.51,8.8-9,13.14-13.57.86-.91,1.94-1.8,2-3.25Z" style="fill:#f2d556"/><path d="M45.65,29.18c.65,0,1.31-.06,2-.07,2.88,0,2.88,0,2.42-3-.18-1,.59-1.4,1.13-1.94q6.31-6.34,12.65-12.66c.6-.6,1.32-1.13,1.18-2.14,2.09,1.16,4.18,2.33,5.18,4.7-.75,0-1.17.54-1.62,1Q52.83,30.8,37.1,46.51a2.54,2.54,0,0,0-.93,2.25c-5.52.9-8.48,4.37-9.7,9.61a1.44,1.44,0,0,0-1.25.44c-1.58,1.47-3.19,2.91-4.77,4.38-2.27,2.09-4.21,4.52-6.68,6.4a8.53,8.53,0,0,1-4-4.56,4.17,4.17,0,0,0,3-1.65q16-16,32-31.95A2.53,2.53,0,0,0,45.65,29.18Z" style="fill:#50729f"/><path d="M36.17,48.76a2.54,2.54,0,0,1,.93-2.25Q52.84,30.82,68.56,15.08c.45-.46.87-1,1.62-1a6,6,0,0,1,1,3.86c0,2.53-.06,5.07-.1,7.6-.94-.1-1.4.61-1.95,1.15L49.11,46.76c-.49.5-1.15.92-1.1,1.77Z" style="fill:#4e6f9b"/><path d="M45.65,29.18a2.53,2.53,0,0,1-.93,2.25q-16,16-32,32a4.17,4.17,0,0,1-3,1.65,12.09,12.09,0,0,1-2-5.13c.75,0,1.14-.58,1.6-1l27.7-27.7c.56-.55,1.2-1.05,1.08-2Z" style="fill:#4f72a1"/><path d="M48,48.53c0-.85.61-1.27,1.1-1.77L69.18,26.69c.55-.54,1-1.25,1.95-1.15A98.06,98.06,0,0,1,71,38.93a10,10,0,0,1-9.25,9.46A74.51,74.51,0,0,1,48,48.53Z" style="fill:#4c6c95"/><path d="M38.15,29.18c.12.93-.52,1.43-1.08,2L9.37,58.86c-.46.46-.85,1-1.6,1a27.76,27.76,0,0,1-1.13-8.69c.93.13,1.43-.52,2-1.08l19-19c.56-.56,1.21-1.06,1.08-2Z" style="fill:#5074a5"/><path d="M28.67,29.18c.13.93-.52,1.43-1.08,2l-19,19c-.56.56-1.06,1.21-2,1.08-.26-5,.2-9.86,2.36-14.42,2.41-5.11,6.4-7.84,12.19-7.69C23.68,29.17,26.18,29.16,28.67,29.18Z" style="fill:#5378a9"/><path d="M65,9.38c.14,1-.58,1.54-1.18,2.14q-6.33,6.33-12.65,12.66c-.54.54-1.31,1-1.13,1.94L38.54,26c-.17-1.08.58-1.66,1.23-2.31Q47.19,16.31,54.6,8.88c.54-.54,1.28-1,1.32-1.87A21.17,21.17,0,0,1,65,9.38Z" style="fill:#4f72a1"/><path d="M55.92,7c0,.91-.78,1.33-1.32,1.87q-7.4,7.44-14.83,14.84c-.65.65-1.4,1.23-1.23,2.31-2.81.37-5.62.07-8.43.17-.77,0-1.06-.33-1-1.07.05-1.31.05-2.62.07-3.93,1.44.08,2-1.18,2.81-1.94s1.39-1.42,2.53-1.22A3.82,3.82,0,0,0,42,17.51c.23-2.26-1.19-3.41-3-4.24-.15-1,.6-1.47,1.13-2.1C41.25,9.77,43,8.86,43.68,7A40.19,40.19,0,0,1,55.92,7Z" style="fill:#5378a9"/><path d="M46.45,51.31c-.08,1.45-1.16,2.34-2,3.25-4.34,4.56-8.75,9.06-13.14,13.57-.59.6-1.1,1.37-2.11,1.25,0-2.63-.18-5.26,0-7.88.33-5.82,4.69-9.85,11-10.23C42.24,51.15,44.35,51.29,46.45,51.31Z" style="fill:#f4da5e"/><path d="M86.9,30.58A34.73,34.73,0,0,0,81,36.31c-2.11,2.52-4.56,4.69-6.82,7-.2.21-.58.24-.88.36,1.18-4.33.68-8.75.7-13.14,0-1.51.35-2.12,2-2,2,.14,4.08,0,6.12.07A7.09,7.09,0,0,1,86.9,30.58Z" style="fill:#f2d556"/><path d="M13.77,69.59c2.47-1.88,4.41-4.31,6.68-6.4,1.58-1.47,3.19-2.91,4.77-4.38a1.44,1.44,0,0,1,1.25-.44c-.34,3.79-.15,7.59-.14,11.39,0,1.25-.3,1.72-1.62,1.65-2.09-.12-4.19,0-6.28-.07A7.12,7.12,0,0,1,13.77,69.59Z" style="fill:#4e6f9b"/><path d="M43.68,7c-.68,1.85-2.43,2.76-3.61,4.16-.53.63-1.28,1.12-1.13,2.1-3.38.18-4.47,1.35-4.45,4.77-1.14-.2-1.79.55-2.53,1.22s-1.37,2-2.81,1.94c0-1.76-.11-3.53-.06-5.29.06-2.6,1.54-4.4,3.62-5.72A21.53,21.53,0,0,1,43.68,7Z" style="fill:#547aad"/><path d="M63.42,79.19a3.88,3.88,0,0,1,2.36,4.47,3.56,3.56,0,0,1-3.06,2.92c-2.06.44-3.23-1-4.37-2.34C58.26,80.18,59.65,78.8,63.42,79.19Z" style="fill:#fcfcfc"/><path d="M34.49,18c0-3.42,1.07-4.59,4.45-4.77,1.83.83,3.25,2,3,4.24a3.82,3.82,0,0,1-7.47.53Z" style="fill:#fcfcfc"/></g></svg>