<svg id="ac218fc4-0775-42e9-ad79-2833cc28affd" data-name="Capa 1" xmlns="http://www.w3.org/2000/svg" viewBox="0 0 100 100"><title>tech-svg</title><path d="M5.76,49.86c0,6.68,6.52,12.92,16.81,16.43C20.52,76.64,22.2,85,27.83,88.22c5.79,3.34,14.42,1,22.6-6.13,8,6.87,16.05,9.57,21.67,6.31,5.79-3.35,7.54-12.25,5.43-22.91C88.25,62,94.24,56.63,94.24,49.86c0-6.53-6.54-12.18-16.68-15.67C79.83,23.08,77.9,15,72,11.57c-5.66-3.26-13.81-.42-21.91,6.63-8.42-7.48-16.5-9.77-22.36-6.37-5.65,3.27-7.26,11.75-5.2,22.29C12.63,37.58,5.76,43.36,5.76,49.86Z" style="fill:#fff"/><path d="M75.41,37.66c-.84-.29-1.68-.55-2.53-.8.14-.57.27-1.15.39-1.72,1.91-9.3.66-16.79-3.61-19.25-4.1-2.37-10.81.1-17.58,6-.67.58-1.32,1.18-2,1.8-.42-.41-.86-.81-1.3-1.21-7.09-6.3-14.21-8.95-18.48-6.48C26.25,18.36,25,25.4,26.76,34.21c.17.87.36,1.74.58,2.6-1,.29-2,.59-2.91.92-8.32,2.9-13.63,7.44-13.63,12.16s5.7,9.75,14.37,12.72c.7.23,1.41.46,2.12.66-.23.93-.44,1.86-.62,2.81C25,74.73,26.31,81.6,30.4,84s11.3-.07,18.19-6.09c.55-.48,1.09-1,1.64-1.52.69.67,1.4,1.32,2.13,1.94C59,84,65.63,86.36,69.71,84s5.59-9.83,3.81-18.81c-.14-.69-.3-1.39-.47-2.1l1.46-.46c9-3,14.87-7.81,14.87-12.74,0-4.73-5.49-9.31-14-12.23Z" style="fill:#6cbfdc"/><path d="M73.45,59.45l-1.32.41a76.34,76.34,0,0,0-4-10A79.61,79.61,0,0,0,72,40.1c.8.23,1.58.47,2.33.73C81.59,43.34,86,47,86,49.89c0,3-4.79,7-12.57,9.56Zm-3.22,6.39a28.57,28.57,0,0,1,.37,10.37c-.47,2.53-1.41,4.21-2.57,4.88-2.48,1.44-7.77-.43-13.48-5.34q-1-.85-2-1.8a80.07,80.07,0,0,0,6.59-8.37A77.45,77.45,0,0,0,69.8,63.94c.16.65.3,1.28.43,1.9Zm-32.64,15c-2.42.86-4.35.88-5.51.21-2.48-1.43-3.51-7-2.11-14.35.17-.87.36-1.74.58-2.61a79.15,79.15,0,0,0,10.59,1.54A82.44,82.44,0,0,0,47.88,74q-.74.71-1.5,1.38a28.38,28.38,0,0,1-8.79,5.5ZM26.25,59.43a28.39,28.39,0,0,1-9.16-4.87c-1.95-1.67-2.94-3.33-2.94-4.67,0-2.86,4.27-6.51,11.39-9,.89-.31,1.79-.6,2.7-.85A79.78,79.78,0,0,0,32.07,50,80.53,80.53,0,0,0,28.19,60C27.54,59.85,26.89,59.65,26.25,59.43Zm3.8-25.86C28.58,26,29.56,20.32,32,18.9c2.63-1.53,8.45.64,14.57,6.08.39.35.79.72,1.18,1.09a80.23,80.23,0,0,0-6.69,8.29A80.93,80.93,0,0,0,30.59,36c-.2-.81-.38-1.61-.54-2.42ZM64,41.94q-1.16-2-2.39-3.93a70,70,0,0,1,7.16,1.25A70,70,0,0,1,66.21,46c-.73-1.37-1.48-2.74-2.26-4.08ZM50.13,28.47c1.54,1.68,3.09,3.55,4.62,5.58q-4.64-.21-9.29,0c1.53-2,3.09-3.88,4.67-5.58ZM36.21,42Q35.05,44,34,46c-1-2.32-1.82-4.6-2.5-6.8,2.24-.5,4.63-.91,7.12-1.22Q37.38,39.95,36.21,42ZM38.69,62a71.67,71.67,0,0,1-7.24-1.17c.7-2.24,1.55-4.56,2.55-6.93.71,1.37,1.45,2.73,2.23,4.06S37.84,60.69,38.69,62Zm11.53,9.52c-1.59-1.71-3.18-3.61-4.73-5.65,1.5,0,3,.08,4.6.08s3.18,0,4.74-.1A70.12,70.12,0,0,1,50.22,71.54Zm16-17.74a70.37,70.37,0,0,1,2.64,6.91A71.12,71.12,0,0,1,61.55,62Q62.8,60,64,58t2.28-4.16Zm-5.19,2.48c-1.19,2.07-2.44,4.1-3.77,6.09-2.33.16-4.74.25-7.19.25s-4.83-.08-7.12-.23q-2-3-3.84-6.09T35.78,50c1-2.15,2.15-4.27,3.34-6.34h0c1.2-2.07,2.47-4.1,3.81-6.07,2.34-.18,4.74-.27,7.16-.27s4.83.09,7.17.27q2,3,3.78,6t3.39,6.3q-1.58,3.24-3.38,6.36ZM68,18.8c2.63,1.51,3.65,7.63,2,15.66-.11.52-.23,1-.35,1.56a81.13,81.13,0,0,0-10.51-1.66,80.22,80.22,0,0,0-6.64-8.29c.59-.57,1.19-1.12,1.8-1.66,5.81-5.05,11.23-7,13.7-5.61Z" style="fill:#fff"/><path d="M50.09,42.87a7,7,0,1,1-7,7,7,7,0,0,1,7-7" style="fill:#6cbfdc"/></svg>