<svg id="e2e7c5cc-e0d0-482c-84de-1bb24ea3a37b" data-name="Capa 1" xmlns="http://www.w3.org/2000/svg" viewBox="0 0 100 100"><title>tech-svg</title><g id="ef0c3690-49a8-4a0c-8495-aed5aa48f79e" data-name="j7zOz3"><path d="M19.08,86.12a10.15,10.15,0,0,1-2-1.25,12,12,0,0,1-3.92-5.59,19.07,19.07,0,0,1-1-4.55c0-.46-.09-.93-.11-1.4,0,0,0-.07,0-.09v-.73l.66-1.19,1.69-3.08c.34-.62.69-1.24,1-1.87A11.3,11.3,0,0,0,16,65.18a1.63,1.63,0,0,0,.11-.17c.32-.58.64-1.16,1-1.74a1.86,1.86,0,0,1,0,.78c0,.58-.09,1.14-.14,1.71,0,.35-.05.69-.08,1-.05.53-.11,1.06-.15,1.59,0,.38,0,.76-.08,1.13l-.15,1.73c0,.34,0,.68-.08,1-.07.62-.11,1.25-.15,1.88,0,.19,0,.38,0,.57s0,.22.2.17l1.21-.37,3.3-1a2.79,2.79,0,0,1,.85-.21l.42,1a10.5,10.5,0,0,0,.42,1,.61.61,0,0,0,0,.13c.34.83.69,1.66,1,2.49.25.63.5,1.25.76,1.87a5.65,5.65,0,0,0,.34.8c0,.11.09.19.07.3a1.11,1.11,0,0,0-.44.08l-2.81.86-5.3,1.6c-.27.09-.31.21-.11.41s.5.54.77.79a11.47,11.47,0,0,0,1.69,1.24C18.77,85.92,19,86,19.08,86.12Z" style="fill:#851913"/><path d="M16,65.18a11.3,11.3,0,0,1-.63,1.19c-.33.63-.68,1.25-1,1.87l-1.69,3.08L12,72.51v-.45a3.43,3.43,0,0,0,.07-.78L12.28,66c0-.16,0-.32,0-.47.49,0,1-.07,1.46-.13l.82-.07Z" style="fill:#aa211a"/><path d="M83.76,83.47c0,.15.08.3,0,.45l0,0L82.41,82.7l-1.23-1.07L81,81.49,79.41,80,78,78.74l-2.24-2a4.52,4.52,0,0,0-.58-.5c-.39-.4-.83-.75-1.24-1.13-.64-.58-1.28-1.15-1.94-1.71a4.8,4.8,0,0,0-.74-.61,1.38,1.38,0,0,0-.37-.39l-1.49-1.31c-.46-.4-.9-.81-1.37-1.19l-.11-.13-1.06-1-.88-.77c-.09-.08-.21-.11-.25-.28-.25-1.1-.54-2.19-.81-3.28-.16-.63-.34-1.26-.46-1.89.13-.15.25-.3.39-.45l.76-.84L67,59.75,68,58.57l1.49-1.67,1-1.11,1.43-1.62.78-.85,1.44-1.63c.24-.28.49-.55.73-.82S75.63,50,76,49.61a.22.22,0,0,1,.29-.06c.72.36,1.41.78,2.14,1.13a.19.19,0,0,0,.28-.07A13.66,13.66,0,0,0,80,48.39a14.46,14.46,0,0,0,1-3,14,14,0,0,0,.31-2.58,12.65,12.65,0,0,0-.06-1.74,16.06,16.06,0,0,0-.3-1.82,13.35,13.35,0,0,0-.61-1.95c-.06-.13-.07-.24.11-.27a.12.12,0,0,0,.11-.12h.11a.23.23,0,0,0,.34,0h.31c.07.06.14.08.19,0h.38c.06.06.1,0,.11,0a3,3,0,0,0,.42,0c.64-.08,1.29-.08,1.93-.14.49,0,1,0,1.47-.08l.25-.06L82.93,34a3.55,3.55,0,0,0-.47-.4l-1.61-1.32L79.48,31.1l-1.19-1,0,0h0l0,0h0L76,28.25c.25-.27.52-.52.79-.77s.76-.72,1.15-1.07c.62-.57,1.24-1.16,1.85-1.74s1-1,1.53-1.44L82,22.6c.38-.34.74-.69,1.11-1a.13.13,0,0,0,.06-.13c0-.07-.08-.05-.12-.06-.46-.1-.94-.14-1.4-.22S80.79,21,80.38,21c-.1-.11-.06-.22,0-.34.32-.7.63-1.41.95-2.11L82.41,16c.17-.37.32-.74.48-1.11a10.82,10.82,0,0,1,2.71,2.73,12.24,12.24,0,0,1,1.86,4.23A20.71,20.71,0,0,1,88,26.72c0,1.11-.08,2.22-.18,3.32-.06,0,0,.07-.06.12s0,.26,0,.39c-.15.95-.32,1.89-.54,2.82-.36,1.49-.8,3-1.28,4.41A46.1,46.1,0,0,1,84,42.58c-.29.62-.55,1.26-.85,1.87-.57,1.16-1.17,2.3-1.8,3.43S80,50.23,79.26,51.36a.63.63,0,0,0-.1.44l.27,1.88c.12.83.25,1.65.37,2.48.15,1,.28,2,.42,2.93l.27,1.79c.13.9.25,1.8.38,2.7,0,.06,0,.12,0,.18.07.49.13,1,.2,1.48s.17,1.16.26,1.75a5.2,5.2,0,0,0,.14.88,1.64,1.64,0,0,0,0,.23c.09.65.19,1.3.29,2,.12.81.23,1.62.35,2.43a.77.77,0,0,0,0,.26c.08.57.17,1.14.25,1.71s.15,1.17.25,1.75c.07.43.1.88.21,1.3,0,.14,0,.28,0,.41.09.68.19,1.36.28,2l.33,2.25C83.63,82.62,83.7,83.05,83.76,83.47Z" style="fill:#76180d"/><path d="M29.2,27.15c1.29-1.23,2.62-2.41,4-3.54a59.29,59.29,0,0,1,7.87-5.45l.28-.15s0,.06,0,.07L43,19.56c.5.49,1,1,1.52,1.45l1.46,1.39,1.46,1.38,1.47,1.39,1.5,1.43L51.84,28l1.48,1.41,1.45,1.37c.49.47,1,.94,1.49,1.41s.83.81,1.25,1.21a1.45,1.45,0,0,0,.44.34c-.45.84-1,1.65-1.47,2.45A62,62,0,0,1,49,45.5a2.65,2.65,0,0,1-.26.21l-.35-.34-1.54-1.46L45.47,42.6l-1.53-1.45L42.5,39.78l-2.24-2.13c-.49-.45-1-.91-1.45-1.37s-1.14-1.09-1.72-1.63l-1.24-1.17L34.25,32,32.93,30.7l-1.56-1.47L30.13,28,30,28Z" style="fill:#941a08"/><path d="M29.2,27.15,30,28l.1.08,1.24,1.2,1.56,1.47L34.25,32l1.6,1.53,1.24,1.17c.58.54,1.14,1.1,1.72,1.63s1,.92,1.45,1.37l2.24,2.13,1.44,1.37,1.53,1.45,1.39,1.31,1.54,1.46.35.34c-.25.26-.5.52-.76.77-.55.55-1.1,1.11-1.68,1.64l-1.25,1.14c-.41.37-.85.71-1.27,1.08a58.58,58.58,0,0,1-5.09,3.94l-.49.32c0-.08-.07-.12-.11-.16l-.81-.78c-.42-.41-.86-.8-1.28-1.21L34.45,51,33,49.63l-1.52-1.45-1.45-1.37c-.55-.5-1.08-1-1.62-1.54l-1.29-1.22-1.56-1.48-1.42-1.34L21.9,39.08c-.51-.48-1-1-1.53-1.44.4-.65.84-1.27,1.28-1.88.88-1.22,1.81-2.4,2.77-3.55.77-.91,1.56-1.79,2.38-2.66S28.38,27.93,29.2,27.15Z" style="fill:#891b09"/><path d="M36.49,58.75c0-.06,0-.08,0-.1s.07.05.11.06l2.63.84c.76.25,1.52.51,2.29.72a8.33,8.33,0,0,0,.84.29l3.09,1,4.25,1.36,2.21.71a2.44,2.44,0,0,1,.32.74,13,13,0,0,1,.51,3.16,13.33,13.33,0,0,1-.07,1.67,12,12,0,0,1-.26,1.59A12.23,12.23,0,0,1,51.16,74a13.11,13.11,0,0,1-2,2.61,10.47,10.47,0,0,1-1.06.94,13.47,13.47,0,0,1-1.16.82c-.07,0-.14.09-.2,0a7.16,7.16,0,0,1-.59-1,.12.12,0,0,0-.1-.1c-.07,0-.08.08-.09.13,0,.22-.1.44-.16.66l-1.17,4.76a.32.32,0,0,1-.2.25c-.32.12-.59.32-.9.46-1.28.57-2.59,1.09-3.92,1.56s-2.67.88-4,1.23a13.36,13.36,0,0,1-1.39.33c0-.09.05-.16.07-.24.16-.67.31-1.33.48-2,.3-1.25.61-2.51.92-3.76l.9-3.69.93-3.77c.3-1.23.59-2.46.9-3.69L39.53,65a.55.55,0,0,0,0-.26,3.7,3.7,0,0,0-.4-.91c-.4-.83-.83-1.64-1.25-2.45l-1.3-2.53S36.55,58.76,36.49,58.75Z" style="fill:#80140a"/><path d="M34.22,86.7a13.36,13.36,0,0,0,1.39-.33c1.37-.35,2.71-.76,4-1.23s2.64-1,3.92-1.56c.31-.14.58-.34.9-.46a.32.32,0,0,0,.2-.25l1.17-4.76c.06-.22.11-.44.16-.66,0,0,0-.13.09-.13a.12.12,0,0,1,.1.1,7.16,7.16,0,0,0,.59,1c.06.11.13.06.2,0a13.47,13.47,0,0,0,1.16-.82,10.47,10.47,0,0,0,1.06-.94,13.11,13.11,0,0,0,2-2.61,12.23,12.23,0,0,0,1.28-3.24,12,12,0,0,0,.26-1.59,13.33,13.33,0,0,0,.07-1.67,13,13,0,0,0-.51-3.16,2.44,2.44,0,0,0-.32-.74l.1,0c1.26.4,2.51.8,3.76,1.22a12.4,12.4,0,0,1,1.34.45c0,.06,0,.12,0,.2a6.05,6.05,0,0,1,.14,1.2,16.64,16.64,0,0,1,0,1.87c-.05.59-.08,1.19-.16,1.78a16,16,0,0,1-.55,2.47,17,17,0,0,1-1.74,3.86,2.72,2.72,0,0,0-.29.5c.08,0,.11,0,.16,0,.23-.14.44-.32.66-.47.06,0,.12-.11.2,0l-.09.1-1.18.82a8.12,8.12,0,0,0-.67.48c-.42.22-.8.51-1.2.77-1.07.68-2.16,1.35-3.27,2l-.66.38.07,0,1.6.12c.4,0,.79,0,1.19.09.6.06,1.2.1,1.8.14l1.09.09c.49,0,1,.1,1.47.1a.3.3,0,0,0,.18,0c.4,0,.79,0,1.19.08.68.07,1.36.11,2,.15l1.05.08,1.77.15c.38,0,.76,0,1.13.08s.87.08,1.3.1l.23,0,1.61.14,1.25.08,1.85.15,1,.08,1.74.15,1.15.08,1.83.15,1.11.08L78,83.5l1.22.11,2,.16,2.43.19a1.23,1.23,0,0,1-.47,0L81,84.15l-1.27.08-2.15.15-1.23.08-2.17.15L73,84.68c-.67,0-1.33.11-2,.15-.46,0-.92,0-1.38.08-.72.07-1.43.11-2.15.15l-1.25.08-2.05.15-1.33.08-2.11.15-1.27.08-2.16.15L56,85.83,54,86l-1.36.08-2.47.19-1.6.11c-.78,0-1.55.1-2.32.15l-1.68.12c-.66,0-1.32.07-2,.12l-.64,0-1.91.14c-.47,0-.94,0-1.41.09a3.48,3.48,0,0,0-.73.07c-.13,0-.27-.07-.37.06h0l-.08,0h-.28c-.07,0-.16-.06-.2.06h0l-.08,0c-.17,0-.34,0-.5,0h-.07c-.15,0-.31,0-.46,0h-.46s-.09,0-.09.06h0l-.09,0a1.16,1.16,0,0,0-.49,0h-.07c-.31,0-.62,0-.92,0,0,0-.09,0-.1.06h0l-.09,0h-.38s-.1,0-.11.07H33l0,0c-.51,0-1,.06-1.52.07,0,0,0,0-.05.06h-.07l-.07,0c-.5,0-1,.07-1.51.08,0,0-.05,0-.06.07h-.07a1.68,1.68,0,0,0-.67,0c0-.06,0-.06.07-.06.53-.07,1.05-.12,1.57-.2.71-.11,1.42-.24,2.12-.38C33.19,86.93,33.71,86.83,34.22,86.7Z" style="fill:#78160e"/><path d="M82.93,34l3.15,2.57-.25.06c-.49,0-1,0-1.47.08-.64.06-1.29.06-1.93.14a3,3,0,0,1-.42,0s-.08,0-.11,0h-.38c-.07,0-.14,0-.19,0H81a1,1,0,0,0-.34,0h-.11c-.66,0-1.33.07-2,.13l-.59,0c-.66.05-1.32.11-2,.14-.41,0-.81.11-1.22.09a.11.11,0,0,0-.08,0,3.72,3.72,0,0,1-.75.17c-.16,0-.13.06-.06.15a5.39,5.39,0,0,1,.55.88,8.21,8.21,0,0,1-.81,9,.18.18,0,0,1-.25.06L72.34,47a23.89,23.89,0,0,0-2.88-1.62.24.24,0,0,0-.32.06c-.25.3-.51.59-.77.89l-1.08,1.19-1.4,1.59-1.07,1.18L63.33,52c-.26.3-.51.6-.78.88s-.25.37-.46.46l0-.08c-.08-.28-.15-.56-.23-.83s-.15-.64-.23-.95c-.12-.48-.22-1-.38-1.45-.15-.73-.35-1.45-.54-2.17v0l0-.05c-.14-.54-.26-1.09-.4-1.64s-.21-.91-.36-1.36c-.18-.79-.38-1.57-.6-2.35-.32-1.3-.65-2.6-1-3.9,0,0,0,0,0-.07l0-.08h0c.1,0,.19,0,.29,0,.56,0,1.12-.08,1.68-.11.75,0,1.5-.12,2.24-.15s1.31-.14,2-.12h0c.24-.13.5,0,.75-.09.51-.09,1-.16,1.55-.27,1.06-.22,2.1-.47,3.15-.7l5.36-1.22,4.2-1c.74-.16,1.49-.32,2.23-.5A8.64,8.64,0,0,0,82.93,34Z" style="fill:#851508"/><path d="M20.37,37.64c.53.46,1,1,1.53,1.44l2.27,2.15,1.42,1.34,1.56,1.48,1.29,1.22c.54.52,1.07,1,1.62,1.54l1.45,1.37L33,49.63,34.45,51,36,52.45c.42.41.86.8,1.28,1.21l.81.78s.11.08.11.16c-.77.54-1.55,1-2.35,1.53a45.5,45.5,0,0,1-5,2.67l-.19.08a.58.58,0,0,0-.16-.19l-1.2-1.13L28.1,56.45,26.52,55c-.45-.44-.9-.86-1.35-1.28l-1.56-1.48L22.2,50.85,20.67,49.4l-1.4-1.33c-.61-.56-1.2-1.14-1.8-1.72l-1-.92a.43.43,0,0,0-.21-.11c.22-.64.51-1.26.79-1.88a44.34,44.34,0,0,1,2.7-4.92C20,38.22,20.18,37.93,20.37,37.64Z" style="fill:#76180d"/><path d="M61.82,52.44c.08.27.15.55.23.83l0,.08c0,.11,0,.22,0,.33.35,1.37.69,2.73,1,4.09.11.45.25.9.32,1.36a.06.06,0,0,0-.07.07c0,.1-.06.12-.14.12-.47,0-.92,0-1.38.07l-2.23.11-1.45.08-2.29.11-1.43.08c-.76,0-1.51.08-2.27.12L50.81,60l-2.28.11-1.4.08-2.34.11-1.15.06c-.27,0-.55,0-.81,0a1.79,1.79,0,0,1-.92-.05c-.11,0-.23-.11-.36,0-.77-.21-1.53-.47-2.29-.72l-2.63-.84s-.09,0-.11-.06L38.6,56.7l3.34-3.1.17-.14c.21,0,.41,0,.61,0L45,53.32l1.42-.08,2.32-.12,1.42-.07c.75,0,1.49-.07,2.24-.12l1.44-.07,2.28-.12,1.4-.07,2.36-.11L61,52.5A3.82,3.82,0,0,0,61.82,52.44Z" style="fill:#981b10"/><path d="M34.22,86.7c-.51.13-1,.23-1.55.33-.7.14-1.41.27-2.12.38-.52.08-1,.13-1.57.2,0,0-.06,0-.07.06a1.68,1.68,0,0,1,.67,0c-.62.06-1.24.1-1.87.12a.61.61,0,0,0-.11-.35,7.77,7.77,0,0,0-.46-1v0a.18.18,0,0,0-.07-.15h0a.09.09,0,0,0,0-.08v0l0,0v0S27,86,27,86h0s0-.06,0-.07a5.61,5.61,0,0,0-.31-.75c-.46-1.08-.9-2.15-1.33-3.23a8.54,8.54,0,0,0-.46-1.08c0-.11-.09-.19-.07-.3.68-.05,1.36-.19,2-.28,1-.14,2.07-.3,3.1-.45a.35.35,0,0,0,.32-.27c.26-.91.54-1.82.82-2.73.16-.52.33-1,.48-1.57s.3-.9.4-1.36l.07-.19c.32-1.09.65-2.18,1-3.26.17-.56.34-1.12.52-1.68,0-.11.07-.22.1-.32L34,67.07,34,67c.16-.54.31-1.09.48-1.62s.35-1.12.5-1.68l.75-2.45c.24-.81.49-1.61.73-2.41a.59.59,0,0,1,0-.08c.06,0,.08.07.11.12l1.3,2.53c.42.81.85,1.62,1.25,2.45a3.7,3.7,0,0,1,.4.91.55.55,0,0,1,0,.26l-1.11,4.53c-.31,1.23-.6,2.46-.9,3.69L36.59,77l-.9,3.69c-.31,1.25-.62,2.51-.92,3.76-.17.67-.32,1.33-.48,2C34.27,86.54,34.2,86.61,34.22,86.7Zm-5.45,1v0h-.05s-.06,0-.05,0S28.74,87.68,28.77,87.68Z" style="fill:#8a1311"/><path d="M58,33.73a1.45,1.45,0,0,1-.44-.34c-.42-.4-.83-.82-1.25-1.21s-1-.94-1.49-1.41L53.32,29.4,51.84,28,50.37,26.6l-1.5-1.43L47.4,23.78,45.94,22.4,44.48,21c-.51-.48-1-1-1.52-1.45l-1.57-1.48s0,0,0-.07c.93-.55,1.89-1,2.87-1.5a30,30,0,0,1,3-1.27c.3-.1.59-.22.9-.3a.25.25,0,0,0,.08.17,10.09,10.09,0,0,1,.83.77c.52.49,1,1,1.55,1.48l1.42,1.34,1.54,1.46L55,21.48l1.53,1.45L58,24.3c.64.59,1.26,1.21,1.9,1.8l.86.83a.37.37,0,0,0,.19.11c-.11.48-.31.94-.47,1.42a25.62,25.62,0,0,1-1.08,2.61C58.92,32,58.47,32.87,58,33.73Z" style="fill:#a21d0c"/><path d="M82.93,34a8.64,8.64,0,0,1-1.19.3c-.74.18-1.49.34-2.23.5l-4.2,1L70,36.92c-1,.23-2.09.48-3.15.7-.51.11-1,.18-1.55.27-.25,0-.51,0-.75.09h0c-.66,0-1.31.09-2,.12s-1.49.1-2.24.15c-.56,0-1.12.09-1.68.11-.1,0-.19.07-.29,0,.36-1.18.73-2.35,1.1-3.52.06-.21.13-.41.2-.61a.84.84,0,0,0,.31-.08l4.22-1,3.08-.69,5.39-1.22,4.51-1a6.12,6.12,0,0,1,1.13-.23h0l0,0h0l0,0,1.19,1,1.37,1.13,1.61,1.32A3.55,3.55,0,0,1,82.93,34Z" style="fill:#981b10"/><path d="M80.22,59.09c-.14-1-.27-2-.42-2.93-.12-.83-.25-1.65-.37-2.48l-.27-1.88a.63.63,0,0,1,.1-.44c.74-1.13,1.44-2.3,2.11-3.48s1.23-2.27,1.8-3.43c.3-.61.56-1.25.85-1.87a46.1,46.1,0,0,0,1.91-4.8c.48-1.45.92-2.92,1.28-4.41.22-.93.39-1.87.54-2.82,0-.13,0-.26,0-.39s0-.11.06-.12c-.06.86-.12,1.73-.19,2.59-.08,1.09-.16,2.18-.25,3.26-.1,1.27-.19,2.53-.29,3.79s-.19,2.46-.28,3.7l-.33,4.26-.24,3.18-.33,4.3-.06.81a.67.67,0,0,0-.37.14l-2,1.16-2,1.14Z" style="fill:#80140a"/><path d="M60.9,27a.37.37,0,0,1-.19-.11l-.86-.83c-.64-.59-1.26-1.21-1.9-1.8l-1.44-1.37L55,21.48l-1.39-1.32L52.05,18.7l-1.42-1.34c-.51-.5-1-1-1.55-1.48a10.09,10.09,0,0,0-.83-.77.25.25,0,0,1-.08-.17,11,11,0,0,1,1.51-.47,16.41,16.41,0,0,1,4.63-.61,8.66,8.66,0,0,1,3.64.8,6.6,6.6,0,0,1,3.34,3.79,10.26,10.26,0,0,1,.51,4.12,18.54,18.54,0,0,1-.7,3.91A2.35,2.35,0,0,1,60.9,27Z" style="fill:#aa211a"/><path d="M80.38,21c.41.05.83.09,1.25.16s.94.12,1.4.22c0,0,.1,0,.12.06a.13.13,0,0,1-.06.13c-.37.35-.73.7-1.11,1l-.66.63c-.52.47-1,1-1.53,1.44s-1.23,1.17-1.85,1.74c-.39.35-.77.71-1.15,1.07s-.54.5-.79.77l-1.13-.92a7.83,7.83,0,0,0-.72-.57,9.1,9.1,0,0,0-.83-.68l0,0h0s0,0,0,0h0s0-.05-.08,0h0s0,0,0,0h0a5.86,5.86,0,0,0-.71-.61l-1.18-.95c-.33-.29-.66-.57-1-.83l-.06,0h0l-1.08-.91a.07.07,0,0,0-.09,0c-.11-.22-.33-.32-.51-.46-1.32-1.1-2.66-2.19-4-3.28l-.11-.1a4,4,0,0,1,.59.07l1.51.2,1.79.26,1.51.21c.46.06.91.15,1.37.17a2.29,2.29,0,0,0,.58.11l2,.26a.51.51,0,0,0,.61-.35c.17-.4.34-.79.52-1.18l.93-2.1c.36-.82.73-1.65,1.09-2.48.2-.45.39-.91.59-1.37a9.78,9.78,0,0,1,1.41.38s0,.07,0,.1c-.29.67-.59,1.35-.89,2l-1,2.13L75.73,20c-.1.22,0,.33.19.36l1.38.2,1.83.26Z" style="fill:#851913"/><path d="M74.15,26.76a7.83,7.83,0,0,1,.72.57l1.13.92,2.21,1.83a6.12,6.12,0,0,0-1.13.23l-4.51,1-5.39,1.22-3.08.69-4.22,1a.84.84,0,0,1-.31.08c.19-.62.38-1.24.58-1.86.28-.91.57-1.81.86-2.71a.43.43,0,0,0,.16,0l1.15-.25L68,28.14l4.54-1C73.08,27,73.61,26.86,74.15,26.76Z" style="fill:#aa211a"/><path d="M27.14,86.39v0a.65.65,0,0,0,0,.2c.07.16.13.32.19.47s0,.12-.08.13c-.62.06-1.23.07-1.85.08a18.16,18.16,0,0,1-2.66-.13,11.17,11.17,0,0,1-2.37-.54c-.08,0-.15-.08-.24,0h0c0-.1-.1-.1-.19-.07h0c0-.08-.06-.06-.11,0h0s0,0-.08,0h0c0-.1-.1-.1-.19-.09h0c0-.05-.05-.05-.08,0h0v0l0,0a.16.16,0,0,1-.11,0c0-.11-.12-.11-.21-.1h0l-.06,0h0c-.1-.17-.31-.2-.46-.3a11.47,11.47,0,0,1-1.69-1.24c-.27-.25-.51-.53-.77-.79s-.16-.32.11-.41l5.3-1.6,2.81-.86a1.11,1.11,0,0,1,.44-.08,8.54,8.54,0,0,1,.46,1.08c.43,1.08.87,2.15,1.33,3.23a5.61,5.61,0,0,1,.31.75s0,.06,0,.07h0a.08.08,0,0,0,0,.07v0l0,0v0a.07.07,0,0,0,0,.08h0C27.07,86.3,27,86.38,27.14,86.39Z" style="fill:#76180d"/><path d="M61.82,52.44a3.82,3.82,0,0,1-.83.06l-1.13.06-2.36.11-1.4.07-2.28.12-1.44.07c-.75,0-1.49.09-2.24.12l-1.42.07-2.32.12L45,53.32l-2.26.11c-.2,0-.4,0-.61,0l2-1.92.77-.7a.41.41,0,0,0,.24,0,10,10,0,0,1,1.1-.07l1.43-.08L50,50.62l1.42-.08,2.34-.12,1.34-.07,2.36-.11c.39,0,.78-.05,1.17-.06s.51,0,.76,0L61.21,50c.16.48.26,1,.38,1.45C61.67,51.8,61.74,52.12,61.82,52.44Z" style="fill:#b33220"/><path d="M35.72,61.24,35,63.69h-.22L33,64l-2,.27-1.95.3-2,.27-2,.3-2,.27-1.95.3c-.73.1-1.46.2-2.18.32-.13,0-.29,0-.39.11l-.36-.77c-.23-.5-.47-1-.7-1.49a6.47,6.47,0,0,1,.88-.15l1.7-.24,1.68-.25,1.73-.26,1.7-.24L27,62.45l1.46-.2L30.14,62l1.71-.25,1.68-.25,1.7-.24A1,1,0,0,1,35.72,61.24Z" style="fill:#dba794"/><path d="M16.3,45.32a.43.43,0,0,1,.21.11l1,.92c.6.58,1.19,1.16,1.8,1.72l1.4,1.33,1.53,1.45,1.41,1.34,1.56,1.48c.45.42.9.84,1.35,1.28l1.58,1.5,1.19,1.11,1.2,1.13a.58.58,0,0,1,.16.19q-.91.42-1.86.75a14.7,14.7,0,0,1-1.16-1.07l-2.25-2.13L24,55.07l-1.53-1.45L21,52.25l-1.52-1.43-1.41-1.34-2-1.93a1.3,1.3,0,0,0-.41-.32,6.89,6.89,0,0,1,.29-.91A10.31,10.31,0,0,1,16.3,45.32Z" style="fill:#851913"/><path d="M60.67,47.84v0l-.58,0L58.64,48c-.77,0-1.53.08-2.29.12l-1.43.07-2.27.12-1.42.07L49,48.48c-.46,0-.92,0-1.38.07a.1.1,0,0,1-.13,0l2.1-2c.46-.44.93-.87,1.4-1.3a.8.8,0,0,0,.26,0,6,6,0,0,1,.95-.06c.75,0,1.51-.08,2.26-.12.47,0,1-.06,1.42-.07.84,0,1.67-.1,2.51-.12l1,0a1.54,1.54,0,0,0,.56-.07c.15.45.24.91.36,1.36s.26,1.1.4,1.64Z" style="fill:#c86f52"/><path d="M17.64,63.84c.23.5.47,1,.7,1.49l.36.77a.56.56,0,0,0,0,.12L20,69.09l.64,1.49c.07.17.13.35.21.52.31.73.62,1.47.89,2.21a2.79,2.79,0,0,0-.85.21l-3.3,1-1.21.37c-.17,0-.21,0-.2-.17s0-.38,0-.57c0-.63.08-1.26.15-1.88,0-.34.05-.68.08-1l.15-1.73c0-.37.05-.75.08-1.13,0-.53.1-1.06.15-1.59,0-.35.05-.69.08-1,.05-.57.11-1.13.14-1.71a1.86,1.86,0,0,0,0-.78c0-.06,0-.14.15-.15A6.76,6.76,0,0,1,17.64,63.84Z" style="fill:#8a1311"/><path d="M80.38,21l-1.25-.19-1.83-.26-1.38-.2c-.23,0-.29-.14-.19-.36L77,17.18l1-2.13c.3-.67.6-1.35.89-2,0,0,0-.07,0-.1a13.54,13.54,0,0,1,4.07,2c-.16.37-.31.74-.48,1.11l-1.09,2.5c-.32.7-.63,1.41-.95,2.11C80.32,20.77,80.28,20.88,80.38,21Z" style="fill:#78160e"/><path d="M47.44,48.5a.1.1,0,0,0,.13,0c.46,0,.92,0,1.38-.07l2.28-.12,1.42-.07,2.27-.12,1.43-.07c.76,0,1.52-.09,2.29-.12l1.45-.08.58,0c.19.72.39,1.44.54,2.17l-1.86.11c-.25,0-.51,0-.76,0s-.78,0-1.17.06l-2.36.11-1.34.07-2.34.12L50,50.62l-2.26.11-1.43.08a10,10,0,0,0-1.1.07.41.41,0,0,1-.24,0l1.12-1.05Z" style="fill:#b64a35"/><path d="M71.14,19.66c-.46,0-.91-.11-1.37-.17l-1.51-.21L66.47,19,65,18.82a4,4,0,0,0-.59-.07c-.06,0-.14,0-.19-.07l.07-.05c.61-.31,1.2-.64,1.79-1,0,0,.07,0,.1,0l1-.57c.23-.11.44-.28.69-.38l1.6-.89a8.87,8.87,0,0,0,.94-.55,4.78,4.78,0,0,0,.81-.42l1.68-.93a8.19,8.19,0,0,1,1-.51c.06.05.2,0,.13.18-.32.68-.61,1.36-.91,2l-.77,1.73-.93,2.13A.36.36,0,0,1,71.14,19.66Z" style="fill:#941a08"/><path d="M80.22,59.09l1.27-.72,2-1.14,2-1.16a.67.67,0,0,1,.37-.14c-.07.85-.13,1.7-.19,2.54s-.13,1.63-.19,2.44a2.71,2.71,0,0,0-.68.34c-.85.48-1.7,1-2.54,1.45a7.92,7.92,0,0,0-1.41.88c-.13-.9-.25-1.8-.38-2.7Z" style="fill:#8a1311"/><path d="M17.18,63.12c-.1,0-.11.09-.15.15-.31.58-.63,1.16-1,1.74a1.63,1.63,0,0,1-.11.17l-1.37.14-.82.07c-.48.06-1,.09-1.46.13,0-.64,0-1.28.08-1.92l.18-3.75c0-.12,0-.23,0-.34a6.65,6.65,0,0,1,.78-.08c.5,0,1-.09,1.51-.15a4.61,4.61,0,0,0,.82-.11c.34.94.68,1.89,1,2.85.11.32.24.64.35,1A.41.41,0,0,0,17.18,63.12Z" style="fill:#b33220"/><path d="M71.14,19.66a.36.36,0,0,0,.25-.23l.93-2.13.77-1.73c.3-.68.59-1.36.91-2,.07-.16-.07-.13-.13-.18a6,6,0,0,1,.64-.38l1.3-.72a9.31,9.31,0,0,1,1.4.24,1.52,1.52,0,0,1,.2.06c-.2.46-.39.92-.59,1.37-.36.83-.73,1.66-1.09,2.48l-.93,2.1c-.18.39-.35.78-.52,1.18a.51.51,0,0,1-.61.35l-2-.26A2.29,2.29,0,0,1,71.14,19.66Z" style="fill:#891b09"/><path d="M71.23,24.37l1.18.95a5.86,5.86,0,0,1,.71.61l-.72.16L67,27.31,62.24,28.4a4.3,4.3,0,0,1-.87.16c.2-.73.44-1.45.68-2.17h.21l3.29-.75,4.56-1A10.59,10.59,0,0,1,71.23,24.37Z" style="fill:#b64a35"/><path d="M14.87,50.19a13.41,13.41,0,0,1,.3-1.4c.1,0,.15.06.21.11.42.42.87.83,1.3,1.24l1.56,1.48L19.66,53l1.53,1.46,1.4,1.32,2.29,2.18c.41.38.8.8,1.22,1.16s.59.62.93.87a.3.3,0,0,1,.16.23,13.93,13.93,0,0,1-1.41.37.54.54,0,0,0-.11-.18c-.37-.28-.66-.62-1-.93s-.89-.83-1.33-1.25l-1.55-1.47-1.42-1.35-1.52-1.45L17.4,52.56c-.66-.63-1.31-1.27-2-1.89A2.85,2.85,0,0,0,14.87,50.19Z" style="fill:#b33220"/><path d="M80.87,63.58a7.92,7.92,0,0,1,1.41-.88c.84-.49,1.69-1,2.54-1.45a2.71,2.71,0,0,1,.68-.34c-.09,1.1-.17,2.2-.25,3.29,0,.29,0,.59-.08.87s0,.55-.06.83a.51.51,0,0,0-.29.1l-.4.23-2,1.16a6.78,6.78,0,0,1-.88.48,5.2,5.2,0,0,1-.14-.88c-.09-.59-.17-1.17-.26-1.75s-.13-1-.2-1.48C80.9,63.7,80.88,63.64,80.87,63.58Z" style="fill:#981b10"/><path d="M24.39,60.82a10.43,10.43,0,0,1-2.23.17c0-.09-.07-.13-.12-.18-.41-.38-.82-.75-1.22-1.14s-1-1-1.52-1.45l-1.44-1.37-1.49-1.4c-.42-.4-.83-.82-1.26-1.21-.14-.13-.26-.31-.47-.36a12,12,0,0,1,0-2.24.15.15,0,0,1,.11.06c.66.62,1.33,1.24,2,1.87.48.46,1,.92,1.45,1.37l1.51,1.44,1.46,1.38c.63.59,1.25,1.2,1.89,1.81C23.51,60,24,60.38,24.39,60.82Z" style="fill:#c86f52"/><path d="M59.89,44.79a1.54,1.54,0,0,1-.56.07l-1,0c-.84,0-1.67.09-2.51.12-.47,0-.95,0-1.42.07-.75,0-1.51.07-2.26.12a6,6,0,0,0-.95.06.8.8,0,0,1-.26,0c.42-.39.83-.79,1.25-1.17l1.35-1.25a.41.41,0,0,1,.32-.13c.7,0,1.41-.06,2.12-.08l1.47-.08c.61,0,1.23-.07,1.84-.1C59.51,43.22,59.71,44,59.89,44.79Z" style="fill:#dba794"/><path d="M24.39,60.82c-.42-.44-.88-.84-1.31-1.25-.64-.61-1.26-1.22-1.89-1.81l-1.46-1.38-1.51-1.44c-.49-.45-1-.91-1.45-1.37-.65-.63-1.32-1.25-2-1.87a.15.15,0,0,0-.11-.06,11.74,11.74,0,0,1,.19-1.45,2.85,2.85,0,0,1,.56.48c.66.62,1.31,1.26,2,1.89l1.45,1.36,1.52,1.45,1.42,1.35,1.55,1.47c.44.42.88.84,1.33,1.25s.63.65,1,.93a.54.54,0,0,1,.11.18A11,11,0,0,1,24.39,60.82Z" style="fill:#b64a35"/><path d="M64.25,18.63l-.07.05a13.12,13.12,0,0,0-1.13-.83L60,15.65l-1.16-.82a.35.35,0,0,1-.13-.11L57.53,12.4a.42.42,0,0,1,0-.1c0-.08,0-.13.08-.13h3.49c0,.06,0,.13.08.19.31.59.61,1.19.91,1.79.72,1.41,1.42,2.84,2.13,4.26A.27.27,0,0,1,64.25,18.63Z" style="fill:#dba794"/><path d="M14.64,53.88c.21,0,.33.23.47.36.43.39.84.81,1.26,1.21l1.49,1.4,1.44,1.37c.51.48,1,1,1.52,1.45s.81.76,1.22,1.14c.05,0,.12.09.12.18a8.06,8.06,0,0,1-3.36-.62A6.28,6.28,0,0,1,17,59.2a7.15,7.15,0,0,1-2.07-3.62A9,9,0,0,1,14.64,53.88Z" style="fill:#dba794"/><path d="M81.51,67.87a6.78,6.78,0,0,0,.88-.48l2-1.16.4-.23a.51.51,0,0,1,.29-.1l-.18,2.51c-.06.82-.12,1.63-.19,2.45a1,1,0,0,1,0,.17.62.62,0,0,0-.25.11c-.76.45-1.55.86-2.29,1.34-.12-.81-.23-1.62-.35-2.43-.1-.65-.2-1.3-.29-2A1.64,1.64,0,0,1,81.51,67.87Z" style="fill:#aa211a"/><path d="M64.25,18.63a.27.27,0,0,0-.07-.21c-.71-1.42-1.41-2.85-2.13-4.26-.3-.6-.6-1.2-.91-1.79,0-.06,0-.13-.08-.19h2.32c0,.08,0,.15.08.22l2.49,5a.45.45,0,0,1,.09.25C65.45,18,64.86,18.32,64.25,18.63Z" style="fill:#c86f52"/><path d="M15.62,47.23a1.3,1.3,0,0,1,.41.32l2,1.93,1.41,1.34L21,52.25l1.44,1.37L24,55.07l1.43,1.36,2.25,2.13a14.7,14.7,0,0,0,1.16,1.07,4.66,4.66,0,0,1-.89.3.16.16,0,0,0-.06-.15l-2.37-2.23-1.41-1.34-1.52-1.44-1.45-1.38L19.57,52l-1.41-1.34c-.62-.57-1.22-1.16-1.83-1.74l-.78-.74a.42.42,0,0,0-.18-.11A6.61,6.61,0,0,1,15.62,47.23Z" style="fill:#981b10"/><path d="M61.37,28.56a4.3,4.3,0,0,0,.87-.16L67,27.31l5.38-1.22.72-.16h0l0,0h0s0,0,.08,0h0l0,0h0s0,0,0,0a9.1,9.1,0,0,1,.83.68c-.54.1-1.07.23-1.61.35l-4.54,1-5.68,1.29-1.15.25a.43.43,0,0,1-.16,0Z" style="fill:#b33220"/><path d="M70.41,15.21a8.87,8.87,0,0,1-.94.55l-1.6.89-.09-.21-2-4a.44.44,0,0,1-.08-.25H69a.38.38,0,0,0,.07.21c.42.84.84,1.67,1.27,2.5A.61.61,0,0,1,70.41,15.21Z" style="fill:#aa211a"/><path d="M15.37,48a.42.42,0,0,1,.18.11l.78.74c.61.58,1.21,1.17,1.83,1.74L19.57,52l1.52,1.44,1.45,1.38,1.52,1.44,1.41,1.34,2.37,2.23a.16.16,0,0,1,.06.15,4.26,4.26,0,0,1-.71.25A.3.3,0,0,0,27,60c-.34-.25-.61-.59-.93-.87s-.81-.78-1.22-1.16l-2.29-2.18-1.4-1.32L19.66,53l-1.42-1.34-1.56-1.48c-.43-.41-.88-.82-1.3-1.24-.06,0-.11-.13-.21-.11A5.12,5.12,0,0,1,15.37,48Z" style="fill:#aa211a"/><path d="M82.17,72.48c.74-.48,1.53-.89,2.29-1.34a.62.62,0,0,1,.25-.11c0,.64-.08,1.28-.13,1.93-.08,1.09-.17,2.17-.25,3.26,0,.19,0,.37,0,.55a.41.41,0,0,0-.23.07l-1.14.66c-.11-.42-.14-.87-.21-1.3-.1-.58-.17-1.17-.25-1.75s-.17-1.14-.25-1.71A.77.77,0,0,1,82.17,72.48Z" style="fill:#b33220"/><path d="M70.41,15.21a.61.61,0,0,0-.06-.29c-.43-.83-.85-1.66-1.27-2.5a.38.38,0,0,1-.07-.21h4l2.58,0h.2l-1.3.72a6,6,0,0,0-.64.38,8.19,8.19,0,0,0-1,.51l-1.68.93A4.78,4.78,0,0,1,70.41,15.21Z" style="fill:#a21d0c"/><path d="M71.23,24.37a10.59,10.59,0,0,0-1.12.23l-4.56,1-3.29.75h-.21c.1-.4.23-.79.37-1.18h.14l1.28-.29c1.69-.38,3.37-.77,5.06-1.14.41-.09.83-.21,1.25-.27h0a.05.05,0,0,0,.06,0C70.57,23.8,70.9,24.08,71.23,24.37Z" style="fill:#c86f52"/><path d="M70.15,23.5c-.42.06-.84.18-1.25.27-1.69.37-3.37.76-5.06,1.14l-1.28.29h-.14c.09-.4.25-.77.36-1.16,0-.09.09-.09.16-.11l2.41-.55,3.57-.8s0,0,.06,0a.07.07,0,0,1,.09,0Z" style="fill:#dba794"/><path d="M66,17.64a.45.45,0,0,0-.09-.25l-2.49-5c0-.07-.09-.14-.08-.22a14,14,0,0,1,1.45,0c0,.1,0,.17.08.25L67.1,16.8a.38.38,0,0,1,.08.23l-1,.57S66.08,17.65,66,17.64Z" style="fill:#b64a35"/><path d="M82.91,77.5l1.14-.66a.41.41,0,0,1,.23-.07L84.13,79c-.07.92-.15,1.84-.22,2.76l-.15,1.76c-.06-.42-.13-.85-.19-1.27L83.24,80c-.09-.68-.19-1.36-.28-2C82.94,77.78,82.93,77.64,82.91,77.5Z" style="fill:#b64a35"/><path d="M67.18,17a.38.38,0,0,0-.08-.23l-2.19-4.35c0-.08-.1-.15-.08-.25a6.32,6.32,0,0,1,.87,0,.44.44,0,0,0,.08.25l2,4,.09.21C67.62,16.75,67.41,16.92,67.18,17Z" style="fill:#b33220"/><path d="M15.19,57.65l.42,1.18-1.26.11c-.57.06-1.14.14-1.72.15a8.4,8.4,0,0,1,.07-1.22,10.36,10.36,0,0,0,1.11-.08C14.27,57.76,14.73,57.7,15.19,57.65Z" style="fill:#c86f52"/><path d="M15.19,57.65c-.46.05-.92.11-1.38.14a10.36,10.36,0,0,1-1.11.08,10,10,0,0,1,0-1.09c0-.15.13-.15.22-.16l1.36-.12c.15,0,.32-.1.44,0s.11.26.17.39S15.11,57.4,15.19,57.65Z" style="fill:#dba794"/><path d="M37.91,87.08a3.48,3.48,0,0,1,.73-.07c.47-.05.94-.05,1.41-.09L42,86.78l.64,0c.66,0,1.32-.07,2-.12l1.68-.12c.77,0,1.54-.11,2.32-.15l1.6-.11,2.47-.19L54,86l2-.14,1.23-.08,2.16-.15,1.27-.08,2.11-.15,1.33-.08,2.05-.15,1.25-.08c.72,0,1.43-.08,2.15-.15.46,0,.92,0,1.38-.08.67,0,1.33-.1,2-.15l1.25-.07,2.17-.15,1.23-.08,2.15-.15L81,84.15,83.14,84a1.23,1.23,0,0,0,.47,0c.06,0,.12,0,.12-.08l0,0c0,.11-.13.09-.21.1L80,84.26l-5.92.4L68.76,85l-5.32.37-4.76.32L53.92,86l-4.19.29L45,86.64l-4.19.29-2.52.17H37.9Z" style="fill:#aa211a"/><path d="M20.17,86.6c.09,0,.16,0,.24,0a11.17,11.17,0,0,0,2.37.54,18.16,18.16,0,0,0,2.66.13c.62,0,1.23,0,1.85-.08.1,0,.12,0,.08-.13s-.12-.31-.19-.47a.65.65,0,0,1,0-.2,7.77,7.77,0,0,1,.46,1,.61.61,0,0,1,.11.35c-.13.06-.27,0-.4,0a25.7,25.7,0,0,1-5.1-.56A13.36,13.36,0,0,1,20.17,86.6Z" style="fill:#851913"/><path d="M12.63,59.09c.58,0,1.15-.09,1.72-.15l1.26-.11.12.34a4.61,4.61,0,0,1-.82.11c-.5.06-1,.1-1.51.15a6.65,6.65,0,0,0-.78.08Z" style="fill:#b64a35"/><path d="M29.65,87.68s0-.07.06-.07c.51,0,1-.09,1.51-.08l.07,0Z" style="fill:#8a1311"/><path d="M31.36,87.56s0-.06.05-.06c.51,0,1-.11,1.52-.07l0,0Z" style="fill:#8a1311"/><path d="M33.62,87.4c0-.06.05-.06.1-.06.3,0,.61-.06.92,0v0Z" style="fill:#8a1311"/><path d="M33,87.45c0-.07.06-.07.11-.07h.38v0Z" style="fill:#8a1311"/><path d="M36.38,87.19c.16-.08.33,0,.5,0v0l-.5,0Z" style="fill:#8a1311"/><path d="M34.71,87.3a1.16,1.16,0,0,1,.49,0,0,0,0,0,1,0,0l-.44,0Z" style="fill:#8a1311"/><path d="M35.3,87.29c0-.06.05-.06.09-.06h.38a0,0,0,0,1,0,0Z" style="fill:#8a1311"/><path d="M37,87.18c0-.12.13-.05.2-.06h.28v0Z" style="fill:#8a1311"/><path d="M35.85,87.22c.15-.07.31,0,.46,0v0l-.4,0Z" style="fill:#8a1311"/><path d="M37.91,87.08v0l-.36,0C37.64,87,37.78,87.1,37.91,87.08Z" style="fill:#8a1311"/><path d="M19.18,86.17c.09,0,.17,0,.21.1A.51.51,0,0,1,19.18,86.17Z" style="fill:#851913"/><path d="M20,86.53c.09,0,.16,0,.19.07Z" style="fill:#851913"/><path d="M19.6,86.36c.09,0,.16,0,.19.09Z" style="fill:#851913"/><path d="M35.85,87.22l.06,0a.15.15,0,0,1-.13,0,0,0,0,0,0,0,0Z" style="fill:#aa211a"/><path d="M34.71,87.3l.06,0a.22.22,0,0,1-.14,0v0Z" style="fill:#aa211a"/><path d="M19.87,86.48c.05,0,.1,0,.11,0Z" style="fill:#851913"/><path d="M19.53,86.33s.07,0,.08,0Z" style="fill:#851913"/><path d="M19.79,86.45s.07,0,.08,0Z" style="fill:#851913"/><path d="M37.45,87.15v0l.08,0Z" style="fill:#aa211a"/><path d="M36.88,87.18v0l.08,0Z" style="fill:#aa211a"/><path d="M58.26,38.39l0,.08C58.23,38.46,58.24,38.43,58.26,38.39Z" style="fill:#981b10"/><path d="M36.31,87.22v0h.07v0Z" style="fill:#aa211a"/><path d="M35.21,87.3a0,0,0,0,0,0,0l.09,0Z" style="fill:#aa211a"/><path d="M33.53,87.41v0l.09,0Z" style="fill:#aa211a"/><path d="M19.5,86.32l0,0v0S19.5,86.33,19.5,86.32Z" style="fill:#851913"/><path d="M19.1,86.13l.06,0Z" style="fill:#851913"/><path d="M21.74,73.31c-.27-.74-.58-1.48-.89-2.21-.08-.17-.14-.35-.21-.52l1.53-.22,1.7-.24,1.67-.25,1.68-.25,1.72-.25,1.7-.24,1.45-.21a10.26,10.26,0,0,1,1.37-.17c-.18.56-.35,1.12-.52,1.68-.32,1.08-.65,2.17-1,3.26l-.07.19a12.39,12.39,0,0,1-1.58.26c-.74.12-1.48.21-2.22.32-.9.13-1.8.29-2.7.4s-1.87.31-2.82.39a10.5,10.5,0,0,1-.42-1Z" style="fill:#b33220"/><path d="M22.58,75.25c1-.08,1.88-.26,2.82-.39s1.8-.27,2.7-.4c.74-.11,1.48-.2,2.22-.32a12.39,12.39,0,0,0,1.58-.26c-.1.46-.27.91-.4,1.36s-.32,1.05-.48,1.57c-.4.09-.82.13-1.23.19l-1.67.25-1.4.21L25,77.7a10.31,10.31,0,0,1-1.36.17c-.35-.83-.7-1.66-1-2.49A.61.61,0,0,1,22.58,75.25Z" style="fill:#aa211a"/><path d="M23.65,77.87A10.31,10.31,0,0,0,25,77.7l1.71-.24,1.4-.21L29.79,77c.41-.06.83-.1,1.23-.19-.28.91-.56,1.82-.82,2.73a.35.35,0,0,1-.32.27c-1,.15-2.06.31-3.1.45-.67.09-1.35.23-2,.28a5.65,5.65,0,0,1-.34-.8C24.15,79.12,23.9,78.5,23.65,77.87Z" style="fill:#981b10"/><path d="M63.49,59.13c-.07-.46-.21-.91-.32-1.36-.34-1.36-.68-2.72-1-4.09,0-.11,0-.22,0-.33.21-.09.31-.3.46-.46s.52-.58.78-.88l1.49-1.68,1.07-1.18,1.4-1.59,1.08-1.19c.26-.3.52-.59.77-.89a.24.24,0,0,1,.32-.06A23.89,23.89,0,0,1,72.34,47l1.06.58a.18.18,0,0,0,.25-.06,8.24,8.24,0,0,0,.81-9,5.39,5.39,0,0,0-.55-.88c-.07-.09-.1-.13.06-.15a3.72,3.72,0,0,0,.75-.17.11.11,0,0,1,.08,0c.41,0,.81-.07,1.22-.09.66,0,1.32-.09,2-.14l.59,0c.65-.06,1.32-.09,2-.13a.12.12,0,0,1-.11.12c-.18,0-.17.14-.11.27A13.35,13.35,0,0,1,81,39.26a16.06,16.06,0,0,1,.3,1.82,12.65,12.65,0,0,1,.06,1.74A14,14,0,0,1,81,45.4a14.46,14.46,0,0,1-1,3,13.66,13.66,0,0,1-1.29,2.22.19.19,0,0,1-.28.07c-.73-.35-1.42-.77-2.14-1.13a.22.22,0,0,0-.29.06c-.36.42-.74.84-1.11,1.26s-.49.54-.73.82l-1.44,1.63-.78.85L70.5,55.79l-1,1.11L68,58.57,67,59.75l-1.4,1.59-.76.84c-.14.15-.26.3-.39.45a.16.16,0,0,1,0-.07c-.17-.66-.33-1.33-.5-2A14.54,14.54,0,0,0,63.49,59.13Z" style="fill:#78160e"/><path d="M63.49,59.13a14.54,14.54,0,0,1,.38,1.44c.17.66.33,1.33.5,2a.16.16,0,0,0,0,.07c.12.63.3,1.26.46,1.89.27,1.09.56,2.18.81,3.28,0,.17.16.2.25.28l.88.77,1.06,1,.11.13a2.11,2.11,0,0,0-.53.24l-2.8,1.59-2.79,1.61-2.53,1.44-2.8,1.6c-.89.51-1.79,1-2.66,1.56a.41.41,0,0,1-.26.09,8.12,8.12,0,0,1,.67-.48l1.18-.82.09-.1c.1,0,.15-.09.22-.14,1-.7,1.92-1.43,2.84-2.19.66-.53,1.31-1.08,2-1.63l1.82-1.61c.46-.41.88-.84,1.34-1.24.22-.2.43-.42.66-.63l1.17-1.1c.08-.07.06-.1,0-.13-1.08-.33-2.15-.7-3.23-1-1.35-.41-2.68-.86-4-1.29-.18-.06-.36-.1-.55-.15a.3.3,0,0,0-.22-.08l0,0h-.08l0,0-.19,0a12.4,12.4,0,0,0-1.34-.45c-1.25-.42-2.5-.82-3.76-1.22l-.1,0-2.21-.71-4.25-1.36-3.09-1a8.33,8.33,0,0,1-.84-.29c.13-.08.25,0,.36,0a1.79,1.79,0,0,0,.92.05c.26,0,.54,0,.81,0l1.15-.06,2.34-.11,1.4-.08L50.81,60l1.42-.07c.76,0,1.51-.09,2.27-.12l1.43-.08,2.29-.11,1.45-.08,2.23-.11c.46,0,.91-.07,1.38-.07.08,0,.14,0,.14-.12A.06.06,0,0,1,63.49,59.13Z" style="fill:#8a1311"/><path d="M53.61,78.06a.41.41,0,0,0,.26-.09c.87-.55,1.77-1,2.66-1.56l2.8-1.6,2.53-1.44,2.79-1.61,2.8-1.59a2.11,2.11,0,0,1,.53-.24c.47.38.91.79,1.37,1.19l1.49,1.31a1.38,1.38,0,0,1,.37.39l-.3.15-3.32,1.9-4.13,2.36-4.12,2.36-3.5,2c-.07,0-.14.07-.14.16-.49,0-1-.06-1.47-.1l-1.09-.09c-.6,0-1.2-.08-1.8-.14-.4,0-.79-.06-1.19-.09l-1.6-.12-.07,0,.66-.38c1.11-.61,2.2-1.28,3.27-2C52.81,78.57,53.19,78.28,53.61,78.06Z" style="fill:#981b10"/><path d="M55.7,81.75c0-.09.07-.12.14-.16l3.5-2,4.12-2.36,4.13-2.36L70.91,73l.3-.15a4.8,4.8,0,0,1,.74.61c.66.56,1.3,1.13,1.94,1.71.41.38.85.73,1.24,1.13-.07.09-.19,0-.28.09-.26.16-.54.31-.8.46L71,78.57l-2.8,1.6c-1.14.65-2.28,1.3-3.41,2-.15.08-.35.1-.41.3-.43,0-.87-.05-1.3-.1s-.75,0-1.13-.08l-1.77-.15L59.12,82c-.69,0-1.37-.08-2-.15-.4,0-.79-.06-1.19-.08A.3.3,0,0,1,55.7,81.75Z" style="fill:#aa211a"/><path d="M64.37,82.43c.06-.2.26-.22.41-.3,1.13-.66,2.27-1.31,3.41-2l2.8-1.6,3.06-1.75c.26-.15.54-.3.8-.46.09-.06.21,0,.28-.09a4.52,4.52,0,0,1,.58.5l2.24,2L79.41,80,81,81.49l.14.14a.78.78,0,0,0-.35.15c-.23.12-.45.26-.68.39l-2.07,1.19c-.06,0-.11.07-.1.14l-1.79-.14-1.11-.08-1.83-.15-1.15-.08-1.74-.15-1-.08-1.85-.15-1.25-.08-1.61-.14Z" style="fill:#b33220"/><path d="M78,83.5c0-.07,0-.11.1-.14l2.07-1.19c.23-.13.45-.27.68-.39a.78.78,0,0,1,.35-.15l1.23,1.07,1.32,1.18c0,.08-.06.08-.12.08l-2.43-.19-2-.16Z" style="fill:#b64a35"/><path d="M80.68,36.92a1,1,0,0,1,.34,0A.23.23,0,0,1,80.68,36.92Z" style="fill:#78160e"/><path d="M81.33,36.88c0-.06.12,0,.19,0S81.4,36.94,81.33,36.88Z" style="fill:#78160e"/><path d="M81.9,36.85c0-.05.07,0,.11,0S82,36.91,81.9,36.85Z" style="fill:#78160e"/><path d="M78.24,30.11l0,0Z" style="fill:#aa211a"/><path d="M78.29,30.15l0,0Z" style="fill:#aa211a"/><path d="M57.71,65.52c.19,0,.37.09.55.15,1.34.43,2.67.88,4,1.29,1.08.33,2.15.7,3.23,1,.1,0,.12.06,0,.13l-1.17,1.1c-.23.21-.44.43-.66.63-.46.4-.88.83-1.34,1.24L60.56,72.7c-.64.55-1.29,1.1-2,1.63-.92.76-1.87,1.49-2.84,2.19-.07,0-.12.13-.22.14s-.14,0-.2,0c-.22.15-.43.33-.66.47,0,0-.08.06-.16,0a2.72,2.72,0,0,1,.29-.5,17,17,0,0,0,1.74-3.86,16,16,0,0,0,.55-2.47c.08-.59.11-1.19.16-1.78a16.64,16.64,0,0,0,0-1.87,6.05,6.05,0,0,0-.14-1.2c0-.08,0-.14,0-.2l.19,0,0,0h.08l0,0C57.52,65.59,57.61,65.58,57.71,65.52Z" style="fill:#76180d"/><path d="M60.67,47.84l0-.05Z" style="fill:#b64a35"/><path d="M20,69.09l-1.26-2.87a.56.56,0,0,1,0-.12c.1-.14.26-.09.39-.11.72-.12,1.45-.22,2.18-.32l1.95-.3,2-.27,2-.3,2-.27,1.95-.3L33,64l1.74-.26H35c-.15.56-.32,1.12-.5,1.68S34.15,66.45,34,67l0,.08a9.44,9.44,0,0,0-1.05.14c-.72.09-1.44.21-2.16.32l-2.22.31-2.74.41-2.5.35Z" style="fill:#c86f52"/><path d="M20,69.09l3.28-.49,2.5-.35,2.74-.41,2.22-.31c.72-.11,1.44-.23,2.16-.32A9.44,9.44,0,0,1,34,67.07l-.39,1.36c0,.1-.07.21-.1.32a10.26,10.26,0,0,0-1.37.17l-1.45.21-1.7.24-1.72.25-1.68.25-1.67.25-1.7.24-1.53.22C20.43,70.08,20.21,69.58,20,69.09Z" style="fill:#b64a35"/><path d="M27.14,86.39c-.1,0-.07-.09-.07-.15A.18.18,0,0,1,27.14,86.39Z" style="fill:#851913"/><path d="M28.77,87.68s-.09,0-.09,0,0,0,.05,0h.05Z" style="fill:#78160e"/><path d="M27.07,86.24a.07.07,0,0,1,0-.08A.09.09,0,0,1,27.07,86.24Z" style="fill:#851913"/><path d="M27,86.05A.08.08,0,0,1,27,86S27,86,27,86.05Z" style="fill:#851913"/><path d="M27,86s0,0,0-.07S27,85.94,27,86Z" style="fill:#851913"/><path d="M27,86.13l0,0Z" style="fill:#851913"/><path d="M73.23,26s-.06,0-.08,0S73.22,26,73.23,26Z" style="fill:#b64a35"/><path d="M70.21,23.54a.05.05,0,0,1-.06,0Z" style="fill:#dba794"/><path d="M73.15,26l0,0S73.15,25.94,73.15,26Z" style="fill:#b64a35"/><path d="M73.27,26.05l0,0S73.26,26,73.27,26.05Z" style="fill:#b64a35"/><path d="M73.32,26.08s0,0,0,0Z" style="fill:#b64a35"/><path d="M57.71,65.52c-.1.06-.19.07-.22-.08A.3.3,0,0,1,57.71,65.52Z" style="fill:#78160e"/><path d="M57.37,65.4l0,0Z" style="fill:#78160e"/><path d="M57.49,65.44l0,0Z" style="fill:#78160e"/></g></svg>