<svg id="bd17397d-5915-4ab6-a947-fc24fd2a3462" data-name="Capa 1" xmlns="http://www.w3.org/2000/svg" viewBox="0 0 100 100"><title>tech-svg</title><path d="M87.32,17.76V18c-.27.14-.35.43-.49.66Q68.62,50,50.43,81.43c-.15.25-.44.47-.32.83h-.37c.09-.46-.26-.74-.46-1.07Q31.2,50,13.11,18.76a1.93,1.93,0,0,1-.43-1H27.51c.09.17.17.33.27.5L49.34,55.47c.15.26.23.68.54.71s.47-.44.63-.72L61.67,36.23Q67,27,72.34,17.79Z" style="fill:#73b584"/><path d="M27.51,17.79c4.42,0,8.84,0,13.26-.05.57,0,.74.33,1,.71q3.8,6.57,7.62,13.13a1.9,1.9,0,0,0,.58.83,2,2,0,0,0,.57-.83c2.53-4.35,5.06-8.69,7.57-13.06a1.3,1.3,0,0,1,1.29-.78c4.33.05,8.65,0,13,.05Q67,27,61.67,36.23L50.51,55.46c-.16.28-.22.75-.63.72s-.39-.45-.54-.71L27.78,18.29C27.68,18.12,27.6,18,27.51,17.79Z" style="fill:#3e4a5d"/></svg>