<svg id="be1d16c6-56d7-40e2-9d6b-c2cd99076181" data-name="Capa 1" xmlns="http://www.w3.org/2000/svg" viewBox="0 0 100 100"><title>tech-svg</title><path d="M84.86,31.65c0,5.21,0,10.42,0,15.62,0,.9-.24,1.14-1.13,1.13-5,0-10,0-15.06.05-6.87,0-13.73,0-20.6.12-1,0-1.19-.28-1.19-1.21q.06-12.8,0-25.59c0-.9.24-1.21,1.14-1.34C55.5,19.37,63,18.25,70.41,17.15l13.08-2c1.37-.2,1.37-.22,1.37,1.17Z" style="fill:#6abbf2"/><path d="M65.87,51.85c6,0,11.93,0,17.89,0,.92,0,1.12.27,1.12,1.14q0,15.47,0,30.92c0,.87-.22,1.11-1.08,1Q73,83.32,62.19,81.81c-4.63-.65-9.26-1.31-13.9-1.91-1-.13-1.41-.43-1.4-1.58Q47,65.65,46.9,53c0-.94.24-1.2,1.19-1.19,5.92,0,11.85,0,17.78,0Z" style="fill:#6abbf2"/><path d="M43.69,65.51c0,4.23,0,8.46,0,12.69,0,.88-.18,1-1.07.9q-13.2-1.92-26.43-3.7c-.79-.11-1.09-.31-1.08-1.17q0-10.82,0-21.63c0-.76.15-1,1-1q13.31.09,26.62.09c.83,0,1,.3,1,1.05C43.68,57,43.69,61.24,43.69,65.51Z" style="fill:#6abbf2"/><path d="M29.32,48.64c-4.38,0-8.76,0-13.13,0-.86,0-1.07-.22-1.06-1.06,0-7.1,0-14.19,0-21.28,0-.87.33-1.08,1.06-1.19q13.14-1.92,26.27-3.88c1-.15,1.28,0,1.27,1.09q-.07,12.51,0,25c0,.9-.18,1.23-1.16,1.21-4.41,0-8.82,0-13.23,0Z" style="fill:#6abbf2"/></svg>